<?xml version="1.0" encoding="utf-8"?>
<!-- Generator: Adobe Illustrator 22.1.0, SVG Export Plug-In . SVG Version: 6.00 Build 0)  -->
<svg version="1.1" id="圖層_1" xmlns="http://www.w3.org/2000/svg" xmlns:xlink="http://www.w3.org/1999/xlink" x="0px" y="0px"
	 viewBox="0 0 60.7 111.3" style="enable-background:new 0 0 60.7 111.3;" xml:space="preserve">
<style type="text/css">
	.st0{
		fill:#fff;
	}
</style>
<path class="st0" d="M32.2,74.6c0.4-2.6-0.4-5-1.5-7.2c1-1.7,2-3.3,3-4.9c2.2,2.9,4.3,5.9,6.2,9c-0.5,2.2-0.9,4.5-0.9,6.8
	c-0.3,1.6,1.1,5.2,3.7,4c2.2-1.4,1.9-3.9,1.5-5.8c-0.9-2.1-2-4.1-3.3-6c0.3-1.1,0.5-2.3,0.8-3.4c0.4-1.3,0.9-2.5,1.3-3.8
	c1.9,2.8,3.7,5.7,5.2,8.7c0,0.2,0.1,0.5,0.2,0.6c0.1,0.1,0.2,0.2,0.3,0.3c1,2,1.8,4.1,2.5,6.2c-0.7,0.4-1.3,0.7-1.9,1.2
	c-0.6,0.5-1.3,1.1-1.1,1.9c0.1,0.8,0,1.5-0.4,2.1c-0.4,0.6-1,1.1-1.7,1.4c-0.3,0.1-1.7,0.8-2,0.5c1.3,1.8,3.5,2.3,5.6,1.6
	c1.1-0.4,2-0.9,2.8-1.4c0,0.2,0,0.5,0,0.7c-1.7,0.9-3.5,2.2-5,3.9c-1.4,1.4-2.2,3.3-2.3,5.2c-0.1,0.8-0.1,1.6,0.1,2.4
	c0.1,0.6,0.2,1.1,0.5,1.6c0,0,0,0,0,0.1c-4.2,0.9-9.3-1.6-11.1-5.8c-3.2-5.9-3.2-14.1,1.5-19.3c-4.7,5.2-4.9,13.4-1.8,19.5
	c2.1,4.1,7.2,6.9,11.5,5.9c0.1,0.1,0.2,0.3,0.3,0.4c0.1,0.1,0.6,0.3,0.7,0.5c-0.2-0.4-0.3-0.7-0.2-1.1c0.4-0.1,0.8-0.3,1.2-0.6
	c-0.1,1.8,0.3,3.6,0.8,5.4c0.3,1.2,0.9,2.1,1.6,3.2c1.2,1.9,3.3,3.9,5.6,2.5c0.6-0.4,0.7-1.6-0.1-1.8c-1.5-0.3-0.5,2,0.2,0.9
	c0.1,0.8-1.1,1.3-1.7,1.2c-0.6,0-1.4-0.5-1.9-0.9c-2.3-1.8-2.8-4.9-3-7.7c-0.1-1.4-0.2-2.7,0.1-4c0.1-0.1,0.1-0.1,0.2-0.2
	c2.4-2.7,3.5-5.6,3.9-8.7c2-3.2,4.3-6.5,5.6-10.4c1.6-3.6,2.1-7.7,1.5-11.6c-0.3-1.8-0.8-3.6-1.6-5.2c-1.8-3.9-5.5-6.3-9.7-6.8
	c4-0.6,7.5-3,9.3-6.8c0.8-1.6,1.3-3.4,1.6-5.2c0.6-3.9,0.1-8-1.5-11.6c-1.2-3.6-3.2-6.7-5.1-9.7c-0.2-3.5-1.3-6.9-4-9.9
	c-0.2-0.3-0.5-0.5-0.7-0.7c-0.1-1,0-2,0-3c0.1-2.8,0.6-5.9,3-7.7c0.5-0.3,1.3-0.8,1.9-0.9c0.6,0,1.8,0.5,1.7,1.2
	c-0.7-1.2-1.6,1.2-0.2,0.9c0.8-0.2,0.7-1.4,0.1-1.8C53.1-0.9,51,1,49.8,3c-0.7,1-1.3,2-1.6,3.2c-0.4,1.5-0.8,3.1-0.8,4.6
	c-0.4-0.2-0.7-0.3-1.1-0.5c0-0.1,0.1-0.3,0.2-0.4c0,0.1-0.3,0.2-0.5,0.3c-4.3-1.1-9.4,1.8-11.6,5.9c-3.1,6.1-3,14.3,1.8,19.5
	c-4.6-5.2-4.7-13.4-1.5-19.3c1.7-4.2,6.9-6.7,11-5.8c-0.2,0.2-0.3,0.4-0.4,0.6c-0.3,0.5-0.4,1-0.5,1.6c-0.1,0.8-0.2,1.6-0.1,2.4
	c0.2,1.9,1,3.8,2.3,5.2c1.6,1.8,3.5,3.1,5.2,4c0.1,0,0.1,0,0.2,0.1c0,0.2,0,0.5,0,0.7c-0.9-0.6-1.9-1.1-3.1-1.6
	c-2.1-0.7-4.3-0.2-5.6,1.6c0.3-0.3,1.7,0.4,2,0.5c0.6,0.3,1.2,0.8,1.7,1.4c0.5,0.7,0.5,1.4,0.4,2.2c-0.1,0.8,0.6,1.4,1.1,1.9
	c0.6,0.5,1.2,0.9,1.9,1.2c0.1,0,0.1,0.1,0.2,0.1c-0.7,2-1.5,4-2.4,5.9c-0.2,0.1-0.3,0.3-0.4,0.5c-0.1,0.3-0.2,0.6-0.3,0.9
	c-1.4,2.7-3.1,5.4-4.8,8c-0.5-1.3-0.9-2.5-1.3-3.8c-0.3-1.1-0.6-2.2-0.8-3.4c1.3-1.9,2.4-3.9,3.3-6c0.4-1.9,0.8-4.4-1.5-5.8
	c-2.7-1.2-4.1,2.4-3.7,4c0,2.3,0.4,4.6,0.9,6.8c-1.9,3.1-4,6-6.2,9c-1-1.6-2.1-3.3-3-4.9c1.1-2.2,2-4.6,1.5-7.2c0.2-2-3.1-3.8-3.9-1
	c-1,2.4-0.1,5.4,1.5,8.6c-0.4,0.7-0.7,1.4-1.1,2.1c-1,1.5-2.1,3-3.2,4.5c-1.6-2.6-3-5.4-3.7-8.3c0.5-0.1,1.1,0,1.2,0.5
	c-0.7-0.3-0.7,0.8-0.6,1.1c0.2,0.4,0.7,0.7,1.1,0.7c0.9,0,1.8-1.1,1.8-1.9c0.1-1-1-1.9-1.9-2.2c-0.7-0.3-1.4-0.2-2.1,0.2
	c-0.2-0.9-0.3-1.8-0.3-2.7c0,0.9,0.1,1.8,0.3,2.7c-1.4,0.8-2.3,2.8-1.3,4.1c-0.4-0.3-0.8-0.4-0.9-1c-0.1-0.4,0-1,0.4-1.3
	c-1.1,0.3-2.1,0.9-2.2,2.3C17,46,18,46.8,19.1,47.4c-1.3,0.4-3.4-1.5-2.6-2.8c-1.3,0.9-2.5,2.5-1,3.8c-0.5-0.4-1,0.2-1,0.7
	c0,0.5,0.3,1,0.7,1.2c0.4,0.3,0.9,0.1,1.4,0.3c0.5,0.2,0.8,0.8,0.2,1.2c-0.1,0.1-0.3,0.1-0.5,0.1c-0.7-0.4-1.4-0.7-2.2-1
	c0,0,0,0-0.1,0c-0.5-0.2-1-0.4-1.6-0.5c-2.8-0.7-5.9-0.8-8.5,0.6c-1.1,0.3-2.1,1-2.8,1.9c-0.9,0.7-1.2,1.6-1.1,2.6
	c-0.1,0.9,0.2,1.9,1.1,2.6c0.7,0.9,1.7,1.6,2.8,1.9c3.1,1.7,6.9,1.2,10.1,0.1c0.9-0.3,1.7-0.7,2.5-1.2c0,0,0,0,0,0
	c0.6,0.4,0.3,1-0.3,1.2c-0.4,0.1-1-0.1-1.4,0.2c-0.4,0.2-0.7,0.7-0.7,1.2c0,0.5,0.5,1.1,1,0.7c-1.7,1.2-0.6,2.8,0.7,3.9
	c-0.7-1.4,1.5-3.2,2.8-2.7c-1.1,0.6-2.1,1.3-2.1,2.7c0.1,1.3,1,2,2.1,2.4c-0.4-0.2-0.5-0.9-0.3-1.3c0.2-0.5,0.6-0.6,1-0.9
	c-1.2,1.5,0.1,4,1.9,4.5c-0.1,0.8-0.2,1.6-0.2,2.3c0.1-0.8,0.1-1.6,0.3-2.3c0.4,0.1,0.9,0.1,1.3,0c0.9-0.3,2-1.1,2-2.2
	c0-0.8-0.8-1.9-1.7-2c-0.2,0-0.4,0-0.5,0.1c0.8-2.2,1.8-4.2,3.1-6.2c1.2,1.5,2.2,3,3.2,4.5c0.4,0.7,0.7,1.4,1.1,2.1
	c-1.6,3.1-2.5,6.2-1.5,8.6C29,78.4,32.3,76.5,32.2,74.6z M42.9,76.7c2.2,4.1-3.2,6.9-3.1,1.5c0-1.9,0.2-3.9,0.6-5.8
	C41.3,73.8,42.2,75.2,42.9,76.7z M39.9,32.6c-0.1-5.4,5.2-2.6,3.1,1.5c-0.8,1.5-1.6,2.9-2.5,4.3C40.1,36.5,39.9,34.5,39.9,32.6z
	 M29.6,41.6c-1.1-1.9-1.7-4.1-0.4-6c0.9-1.3,1.9-0.9,2.2,0.9c0.4,2.1-0.3,4.2-1.2,6.3C30,42.3,29.8,42,29.6,41.6z M41.1,66.8
	c-0.3,0.9-0.5,1.8-0.8,2.7c-1.9-2.7-4-5.3-6.1-7.9c1.2-1.9,2.5-3.8,3.8-5.7c0.1,0.2,0.3,0.4,0.4,0.5c1.4,2,2.8,4.1,4.3,6.2
	C42.1,64,41.6,65.4,41.1,66.8z M21.7,55.2c0,0,0-0.1,0-0.1c1.4-1.2,2.6-2.6,3.8-4c0.9,1.5,1.9,2.9,2.9,4.3c-1,1.4-2,2.8-2.9,4.3
	c-1.2-1.4-2.4-2.8-3.8-4C21.7,55.5,21.7,55.4,21.7,55.2z M33.6,49.9c1.5,2.1,3,4,4.1,5.5c-1.1,1.5-2.6,3.4-4.1,5.5
	c-1.5-1.8-3.1-3.6-4.5-5.5C30.5,53.6,32,51.7,33.6,49.9z M47,55.6c-0.3,0-0.5,0.1-0.8,0.1c0,0,0-0.1,0-0.1
	C46.5,55.6,46.7,55.6,47,55.6z M45.6,55.7C45.6,55.7,45.6,55.7,45.6,55.7C45.6,55.7,45.6,55.7,45.6,55.7c-1,2.1-1.9,4.2-2.8,6.4
	c-1-1.4-1.9-2.8-2.7-4.1c-0.6-0.9-1.2-1.8-1.8-2.6c0.6-0.9,1.2-1.8,1.8-2.6c0.8-1.2,1.8-2.6,2.7-4.1c0.9,2.3,1.9,4.5,2.9,6.7
	C45.7,55.5,45.7,55.6,45.6,55.7z M49.6,73.4c0.2,0.1,0.4,0.2,0.7,0.2C50,73.8,50,74,49.9,74.1C49.8,73.9,49.7,73.7,49.6,73.4z
	 M46.6,100.1c0-0.2,0.1-0.3,0.2-0.5c0.4-0.8,0.7-1.7,1.5-2.1c-0.3,0.7-0.4,1.4-0.5,2.1C47.4,99.8,47,100,46.6,100.1z M50.7,96.3
	c-0.3,0.8-0.8,1.5-1.3,2c0.2-1.1,0.6-2.2,1.1-3.3c0.5-1,1-2.1,1.6-3.1C51.8,93.4,51.3,94.8,50.7,96.3z M53.6,86.6
	c0-0.3,0-0.5-0.1-0.8c0.4-0.3,0.8-0.6,1.1-0.9C55.2,84.7,54.5,85.9,53.6,86.6z M56.8,74.5c-0.2,0.3-0.4,0.6-0.7,0.9
	c-0.3,0.4-0.6,0.7-1,1c-1,0.9-2.1,1.6-3.3,2.3c-0.5-1.4-1.1-2.8-1.7-4.2c0.2,0.2,0.5,0.3,0.8,0.4c0.7,0.2,4.3-0.2,4.3-1.4
	c0,0.3-0.2,1.9-0.8,1.6C55.5,75.5,56.2,75.1,56.8,74.5z M51.4,58.6c0.6,1.1,0.3,2.5,1,3.4c0.3,0.4,1,0.8,1.3,0.4
	c0.2-0.3,0.1-0.6,0-0.8c0.3,0.6,0.9,1.5,2.1,1.9c1.7-0.4,0.7-2.5,0.4-3.7c0-0.1-0.1-0.1-0.1-0.2c0.5,0.5,0.9,1.1,1.3,1.8
	c1,1.9,1.7,6.1-0.4,7.5c-0.1,0.1-1.3,0.6-1.4,0.4c-0.1-0.1-0.2-0.2-0.2-0.3c-1.3,1.1,1.4,3.2,2.4,1.2c-1,2-3.8,3.6-5.7,1.4
	c-0.7-1.1-0.7-2.9,0.1-3.6c0.9-0.8,2-0.1,2.3,0.5c0,0,0-0.1,0-0.1l0,0c0.6-0.9-1.5-3.6-3.8-2c-1.3,1.3-1.3,3-0.7,4
	c-0.1-0.1-0.2-0.1-0.4-0.2c-0.6-0.2-1.1-0.1-1.4-0.1c0,0,0-0.1,0-0.1c0,0.2,0,0.4,0,0.5c-1.6-2.8-3.3-5.5-4.9-8
	c0.8-2.3,1.8-4.6,2.7-6.9c1.5,3.1,3,6.2,4.6,9.2c-1.5-3.1-2.9-6.1-4.3-9.2c0.5,0,1,0.1,1.6,0C49.3,56.2,50.8,57.2,51.4,58.6z
	 M46.4,11.7c-0.2-0.4-0.3-0.8-0.2-1.1c0.4,0.1,0.8,0.3,1.2,0.5c0,0.9,0.2,1.9,0.5,2.8C47.2,13.4,46.8,12.4,46.4,11.7z M50.1,16.3
	c-0.5-1.1-0.9-2.3-1.1-3.5c-0.1-0.3-0.1-0.6-0.1-0.9c0.7,0.7,1.4,1.5,1.8,2.6c0.8,1.9,1.4,3.9,1.6,5.9
	C51.5,19.1,50.7,17.7,50.1,16.3z M53.5,25c0.8,0.7,1.3,1.6,0.7,1.4c-0.2-0.2-0.5-0.4-0.8-0.7C53.4,25.5,53.5,25.2,53.5,25z
	 M54.8,34.9c0.3,0.3,0.7,0.6,1,1c0.3,0.3,0.5,0.6,0.7,0.9c-0.6-0.6-1.3-1-2.3-0.7c0.6-0.2,0.8,1.4,0.8,1.6c0-1.2-3.7-1.6-4.3-1.4
	c-0.2,0.1-0.5,0.2-0.7,0.3c0.6-1.3,1.2-2.7,1.7-4C52.8,33.3,53.8,34,54.8,34.9z M49.6,37.3c0,0.1,0.1,0.2,0.3,0.3
	c-0.2,0.1-0.4,0.1-0.5,0.2C49.5,37.7,49.5,37.5,49.6,37.3z M47.7,40.9c0,0.2,0,0.3,0,0.4c0,0,0-0.1,0-0.1c0.3,0.1,0.8,0.1,1.4,0
	c0.1-0.1,0.3-0.1,0.4-0.2c-0.5,1-0.6,2.7,0.7,4c2.3,1.5,4.4-1.1,3.8-2l0,0c0,0,0-0.1,0-0.1c-0.3,0.6-1.4,1.3-2.3,0.5
	c-0.8-0.7-0.8-2.5-0.1-3.6c1.9-2.2,4.7-0.6,5.7,1.4c-1-2-3.7,0.2-2.4,1.2c0.1-0.1,0.2-0.2,0.2-0.3c0.1-0.2,1.3,0.3,1.4,0.4
	c2.1,1.4,1.4,5.6,0.4,7.5c-0.3,0.7-0.8,1.3-1.3,1.8c0-0.1,0.1-0.1,0.1-0.2c0.3-1.2,1.3-3.3-0.4-3.7c-1.2,0.5-1.8,1.3-2.1,1.9
	c0.1-0.2,0.2-0.5,0-0.8c-0.4-0.4-1-0.1-1.3,0.4c-0.7,0.9-0.4,2.3-1,3.4c-0.6,1.4-2,2.5-3.5,2.9c-0.4,0-0.8,0-1.3,0.1
	c0-0.1-0.1-0.2-0.1-0.2c1.4-3.2,2.9-6.4,4.4-9.6c-1.6,3.1-3.1,6.1-4.6,9.2c-1-2.3-1.9-4.6-2.7-6.9C44.7,45.9,46.3,43.5,47.7,40.9z
	 M40.3,41.2c0.2,0.9,0.5,1.8,0.8,2.7c0.5,1.4,1,2.8,1.6,4.2c-1.4,2.1-2.9,4.2-4.3,6.2c-0.1,0.2-0.3,0.4-0.4,0.5
	c-1.3-1.9-2.6-3.8-3.8-5.7C36.3,46.6,38.5,44,40.3,41.2z M29.2,46.2c0.3-0.6,0.6-1.1,0.9-1.7c0.9,1.6,1.9,3.2,2.9,4.7
	c-1,1.3-2,2.6-3,3.9c-0.5,0.6-0.9,1.2-1.4,1.9c-1-1.4-2-2.7-2.9-4.1C27,49.3,28.1,47.7,29.2,46.2z M22.2,48.6
	c-0.6-1.9-2.5-3.1-1.8-5.3c0.2-0.6,0.5-1.1,1.1-1.3c0,0,0,0,0.1,0c0.7,3,2,5.9,3.6,8.6c-1.1,1.4-2.4,2.8-3.7,4
	c-0.3-0.8-1.2-1.8-2-1.5C21.2,52.7,22.7,50.4,22.2,48.6z M1.1,52.9c-0.5,0.7-0.9,1.4-1,2.2C0,54.3,0.4,53.5,1.1,52.9z M0.1,55.7
	c0.1,0.8,0.5,1.5,1,2.2C0.4,57.3,0,56.5,0.1,55.7z M4,59.7c-0.9-0.2-1.8-0.8-2.5-1.5c0.2,0.1,0.3,0.2,0.5,0.3
	c-0.2-0.1-0.4-0.2-0.5-0.3c-0.8-0.8-1.4-1.8-1.5-2.8c0.1-1,0.7-2,1.5-2.8c0.2-0.1,0.3-0.2,0.5-0.3c-0.2,0.1-0.4,0.2-0.5,0.3
	c0.7-0.7,1.6-1.2,2.5-1.5c2.3-1.2,4.9-1.2,7.4-0.7c-0.7,0.2-1.5,0.7-1.6,1.5c-0.1,0.9,0.7,1.4,1.5,1.5c-1.7-0.2-2.6,0.4-3.6,1.7
	c0.9,1.4,1.9,2,3.6,1.9c-0.8,0.1-1.6,0.5-1.6,1.4c0.1,0.8,0.9,1.4,1.6,1.6c0.9,0.3,1.9,0,2.7-0.3c0.4-0.2,1.4-0.8,2.1-0.8
	c-0.7,0.4-1.4,0.7-2.1,1C10.8,60.8,7.1,61.3,4,59.7z M22.2,68.4c-0.1,0.3-0.3,0.4-0.5,0.5c0-0.2,0.1-0.3,0.1-0.5
	C21.9,68.4,22,68.4,22.2,68.4z M22.2,66.8c-0.2,0.1-0.4,0.3-0.5,0.4c-0.1,0.2-0.2,0.8,0,1c-0.1,0.2-0.1,0.4-0.2,0.6
	c-0.3,0-0.5,0-0.8-0.1c-0.6-0.2-0.9-0.8-1-1.4c-0.6-2.2,1.4-3.4,2.1-5.2c0.3-0.9,0.1-1.9-0.4-2.8c-0.4-0.8-1.1-1.6-1.9-1.8
	c1,0.3,1.7-0.6,2-1.5c1.3,1.2,2.5,2.6,3.6,4C24,62.3,22.9,64.5,22.2,66.8z M29.2,64.6c-1.1-1.6-2.2-3.1-3.5-4.6
	c0.9-1.4,1.9-2.8,2.9-4.1c0.5,0.6,0.9,1.3,1.4,1.9c1,1.3,2,2.6,3,3.9c-1.1,1.5-2.1,3.1-2.9,4.7C29.8,65.7,29.5,65.2,29.2,64.6z
	 M29.2,75.3c-1.4-2-0.7-4.1,0.4-6c0.2-0.4,0.5-0.8,0.7-1.2c0.9,2.1,1.6,4.2,1.2,6.3C31.1,76.1,30.1,76.6,29.2,75.3z"/>
</svg>
