<?xml version="1.0" encoding="utf-8"?>
<!-- Generator: Adobe Illustrator 22.1.0, SVG Export Plug-In . SVG Version: 6.00 Build 0)  -->

<svg version="1.1" id="圖層_1" xmlns="http://www.w3.org/2000/svg" xmlns:xlink="http://www.w3.org/1999/xlink" x="0px" y="0px"
	 viewBox="0 0 282.5 45.1" style="enable-background:new 0 0 282.5 45.1;" xml:space="preserve">
	<style type="text/css">
		.border{
			fill-rule:evenodd;
			clip-rule:evenodd;
			fill: #751f05;
		}
	</style>
<g>
	<g>
		<g>
			<path class="border" d="M137.8,34.9c-0.2,1.1-1.5,0.9-1.4-0.1c0.1-0.5,0.9-1,0.2-1c-1.7,0.1-2.2,3.1,0.1,3.8c2.3,0.7,4.1-2.1,2.7-4.2
				c2.9,2.9,0.1,7-3.4,5.8c-2.1-0.7-2.6-2.9-1.8-4.4C135.3,32.6,138.1,33,137.8,34.9z"/>
			<path class="border" d="M143.1,33.4c-1.4,2.1,0.4,4.8,2.7,4.2c2.4-0.7,1.8-3.7,0.1-3.8c-0.7,0,0.1,0.5,0.2,1c0.2,1-1.1,1.2-1.3,0.1
				c-0.3-1.9,2.4-2.3,3.6-0.1c0.8,1.5,0.2,3.7-1.8,4.4C143,40.5,140.2,36.3,143.1,33.4z"/>
			<path class="border" d="M141.2,37.9c0.5,1.3,1.5,1.4,2.2,2.4c0.8,1.3-0.5,3-2.2,1.6c-1.6,1.4-3-0.3-2.2-1.6C139.7,39.3,140.7,39.2,141.2,37.9z"
				/>
			<path class="border" d="M141.2,43.1c-0.5,0-1,0.4-1,1c0,0.5,0.4,1,1,1c0.5,0,1-0.4,1-1C142.2,43.6,141.8,43.1,141.2,43.1z"/>
		</g>
		<path class="border" d="M141.2,30.9c-0.7,0-1.3,0.6-1.3,1.3c0,0.7,0.6,1.3,1.3,1.3c0.7,0,1.3-0.6,1.3-1.3C142.5,31.4,141.9,30.9,141.2,30.9z"/>
	</g>
	<path class="border" d="M141.2,2.7c0.5,1.3,1.5,1.4,2.1,2.4c0.8,1.3-0.5,3-2.1,1.6c-1.6,1.4-3-0.3-2.1-1.6C139.7,4.1,140.7,4,141.2,2.7z"/>
	<path class="border" d="M141.2,7.6c-0.4,0-0.7,0.3-0.7,0.7c0,0.4,0.3,0.7,0.7,0.7c0.4,0,0.7-0.3,0.7-0.7C141.9,7.9,141.6,7.6,141.2,7.6z"/>
	<g>
		<path class="border" d="M142.1,27.8c-2.7,4.5-9,6.8-13.5,3.6c-2-1.4-3.3-4.2-1.9-6.4c1.4-2.2,4.3-1.7,5.5,0.5c-2.2-2.7-6.4-0.3-4.5,2.9
			c2,3.3,9.1,3.6,12.6-1.9c6.2-9.8-2-21.7-13.7-23C111,1.7,102.9,8.5,90.4,15c-11.6,6-21.9,10.3-34.2,8.9c-4.4-0.5-9.5-2-12.1-5.9
			c-5.3-8,1.7-17,9.7-15.1c4,1,6.4,5,4.6,8.3c-1,1.7-2.9,2.4-4.3,1.8c-1.9-0.8-1.6-2.9-0.2-3.4c-0.7,0.6-1.2,1.5-0.4,2.3
			c2,1.9,5.7-1.7,2.7-4.8c-2.5-2.6-7-1.6-9.2,0.9c-2,2.3-2.7,5.7-1.4,8.6c1.8,4.1,5.4,6.3,10.4,6.9c11.4,1.3,21.9-4.7,33.3-10.6
			c9.5-5,22.7-11.6,37.2-9.8C141.9,4.9,148.3,17.4,142.1,27.8z"/>
		<path class="border" d="M125.7,5.3c12.7,2.1,15.5,19.3,4.4,23.8c-3.8,1.5-12.2,1.1-12.2-9.4c0-4.9-0.4-7-2.1-8c-1.4-0.8-2.9-0.1-3.3,1.4
			c-0.5,1.6,0.8,3.4,0.1,4.9c-0.6,1.2-1.8,1.6-3.6,0.8c3.7-0.5,1.6-4.1,2.4-7.3c0.6-2.5,2.9-3.8,5.4-2.8c3.1,1.2,3.7,4.7,3,8.6
			c-1.4,7.8,1.9,14.1,10,11.7c8.1-2.4,9.1-20.3-4.3-23.3c-6.7-1.5-14.1,1.5-20.6,7.1c-3.7,3.3-5.4,6.1-8.6,9.3
			c-1.9,1.8-3,3.1-4.7,4.8c-2.1,2.1-5,0.4-5.5,3.1c-0.6-3.7,2.4-3.8,3.2-4.5c1-1-0.8-1.9-1.7-0.8c-0.7,0.9-1.4,2.9-2.6,3.2
			c-2.3,0.7-5.1-1.3-7.6-3c-1.9-1.3-4.5-1-5,0.8c-0.5,1.6,0.6,2.1,1,1.6c0.5-0.7,1.6,0,1,0.9c-0.7,0.9-2.5,0.6-2.7-1.2
			c-0.2-2,1.6-4.1,4.9-4.3c3.2-0.3,5.1,0.7,8.7,0.5c8.7-0.6,13.4-6.2,16.7-8.9C108.4,8.8,115.3,3.7,125.7,5.3z"/>
		<path class="border" d="M80.4,4.5c6.1,1.1,11.4,5,13.8,0.5C93.7,7.5,92,8.9,90,9.2c-3,0.5-5.1-1-6.9-2.2c-1-0.6-2-0.7-0.9,0.3
			c2.6,2.6-0.1,4.5-1.7,3.9c1.6-1.8,0.4-4.4-3-4c-2.3,0.3-4.2,2.4-4.2,5.3c0,9.6,16.2,10.7,27,1.7c-8.1,7.7-21.3,8.7-26.9,3
			C68.3,11.8,71.8,2.9,80.4,4.5z"/>
		<path class="border" d="M65.5,22.4c-10.7,1.9-15.2-6.8-21.4-11.6c-3.9-3.1-9.6-4-13.2-1c-3.4,2.8-3,8.6,1.3,9.1c2.6,0.4,4-2.2,3.1-3.6
			c-0.5-0.8-1.3-1.3-2.5-1.2c2.1-2.5,6.7,1,3.9,4.4c-2.8,3.3-8.9,1.1-9.1-4.2c-0.2-4.3,3-7.7,7.5-8.1C48.3,5.2,50.8,24.3,65.5,22.4z
			"/>
		<path class="border" d="M72.3,20.2c-11.3,5.3-15-4.9-9.7-8c2.5-1.5,5.8,0.2,5.3,2.9c-0.4,2.1-2.7,2.4-3.2,1.1c-0.2-0.4,0.1-1,0.6-1.1
			c0.7-0.1,0.7,0.8,0.9,0.1c0.6-1.5-1.4-2.8-3.1-1.8C58.9,15.7,62,24.3,72.3,20.2z"/>
	</g>
	<g>
		<path class="border" d="M140.4,27.8c2.7,4.5,9,6.8,13.5,3.6c2-1.4,3.3-4.2,1.9-6.4c-1.4-2.2-4.3-1.7-5.5,0.5c2.2-2.7,6.4-0.3,4.5,2.9
			c-2,3.3-9.1,3.6-12.6-1.9c-6.2-9.8,2-21.7,13.7-23c15.4-1.7,23.5,5.2,36,11.7c11.6,6,21.9,10.3,34.2,8.9c4.4-0.5,9.5-2,12.1-5.9
			c5.3-8-1.7-17-9.7-15.1c-4,1-6.4,5-4.6,8.3c1,1.7,2.9,2.4,4.3,1.8c1.9-0.8,1.6-2.9,0.2-3.4c0.7,0.6,1.2,1.5,0.4,2.3
			c-2,1.9-5.7-1.7-2.7-4.8c2.5-2.6,7-1.6,9.2,0.9c2,2.3,2.7,5.7,1.4,8.6c-1.8,4.1-5.4,6.3-10.4,6.9c-11.4,1.3-21.9-4.7-33.3-10.6
			c-9.5-5-22.7-11.6-37.2-9.8C140.6,4.9,134.2,17.4,140.4,27.8z"/>
		<path class="border" d="M156.8,5.3c-12.7,2.1-15.5,19.3-4.3,23.8c3.8,1.5,12.2,1.1,12.2-9.4c0-4.9,0.4-7,2.1-8c1.4-0.8,2.9-0.1,3.3,1.4
			c0.5,1.6-0.8,3.4-0.1,4.9c0.6,1.2,1.8,1.6,3.6,0.8c-3.7-0.5-1.6-4.1-2.4-7.3c-0.6-2.5-2.9-3.8-5.4-2.8c-3.1,1.2-3.7,4.7-3,8.6
			c1.4,7.8-1.9,14.1-10,11.7c-8.1-2.4-9.1-20.3,4.3-23.3c6.7-1.5,14.1,1.5,20.6,7.1c3.7,3.3,5.4,6.1,8.6,9.3c1.9,1.8,3,3.1,4.7,4.8
			c2.1,2.1,5,0.4,5.5,3.1c0.6-3.7-2.4-3.8-3.2-4.5c-1-1,0.8-1.9,1.7-0.8c0.7,0.9,1.4,2.9,2.6,3.2c2.3,0.7,5.1-1.3,7.6-3
			c1.9-1.3,4.5-1,5,0.8c0.5,1.6-0.6,2.1-1,1.6c-0.5-0.7-1.7,0-1,0.9c0.7,0.9,2.5,0.6,2.7-1.2c0.2-2-1.6-4.1-4.9-4.3
			c-3.2-0.3-5.1,0.7-8.7,0.5c-8.7-0.6-13.4-6.2-16.6-8.9C174.1,8.8,167.1,3.7,156.8,5.3z"/>
		<path class="border" d="M202.1,4.5c-6.1,1.1-11.4,5-13.8,0.5c0.6,2.6,2.3,3.9,4.2,4.3c3,0.5,5.1-1,7-2.2c1-0.6,2-0.7,0.9,0.3
			c-2.6,2.6,0.1,4.5,1.7,3.9c-1.6-1.8-0.5-4.4,3-4c2.3,0.3,4.2,2.4,4.2,5.3c0,9.6-16.2,10.7-27,1.7c8.1,7.7,21.4,8.7,26.9,3
			C214.2,11.8,210.7,2.9,202.1,4.5z"/>
		<path class="border" d="M217,22.4c10.7,1.9,15.2-6.8,21.4-11.6c3.9-3.1,9.6-4,13.2-1c3.4,2.8,3,8.6-1.3,9.1c-2.6,0.4-4-2.2-3.1-3.6
			c0.5-0.8,1.3-1.3,2.5-1.2c-2.1-2.5-6.7,1-3.9,4.4c2.8,3.3,8.9,1.1,9.1-4.2c0.2-4.3-3-7.7-7.5-8.1C234.2,5.2,231.7,24.3,217,22.4z"
			/>
		<path class="border" d="M210.1,20.2c11.3,5.3,15-4.9,9.7-8c-2.5-1.5-5.8,0.2-5.3,2.9c0.4,2.1,2.7,2.4,3.2,1.1c0.2-0.4-0.1-1-0.6-1.1
			c-0.7-0.1-0.7,0.8-0.9,0.1c-0.6-1.5,1.4-2.8,3.1-1.8C223.5,15.7,220.5,24.3,210.1,20.2z"/>
	</g>
</g>
<path class="border" d="M141.2,1.7C135.9,1.7,16.2,1.8,0,0c8.4,0,141.2,0,141.2,0s132.9,0,141.2,0C266.3,1.8,146.6,1.7,141.2,1.7z"/>
</svg>
