<?xml version="1.0" encoding="utf-8"?>
<!-- Generator: Adobe Illustrator 22.1.0, SVG Export Plug-In . SVG Version: 6.00 Build 0)  -->
<svg version="1.1" id="圖層_1" xmlns="http://www.w3.org/2000/svg" xmlns:xlink="http://www.w3.org/1999/xlink" x="0px" y="0px"
	 viewBox="0 0 60.7 111.3" style="enable-background:new 0 0 60.7 111.3;" xml:space="preserve">
<style type="text/css">
	.st0{fill:#fff;}
</style>
<path class="st0" d="M28.6,36.7c-0.4,2.6,0.4,5,1.5,7.2c-1,1.7-2,3.3-3,4.9c-2.2-2.9-4.3-5.9-6.2-9c0.5-2.2,0.9-4.5,0.9-6.8
	c0.3-1.6-1.1-5.2-3.7-4c-2.2,1.4-1.9,3.9-1.5,5.8c0.9,2.1,2,4.1,3.3,6c-0.3,1.1-0.5,2.3-0.8,3.4c-0.4,1.3-0.9,2.5-1.3,3.8
	c-1.9-2.8-3.7-5.7-5.2-8.7c0-0.2-0.1-0.5-0.2-0.6c-0.1-0.1-0.2-0.2-0.3-0.3c-1-2-1.8-4.1-2.5-6.2c0.7-0.4,1.3-0.7,1.9-1.2
	c0.6-0.5,1.3-1.1,1.1-1.9c-0.1-0.8,0-1.5,0.4-2.1c0.4-0.6,1-1.1,1.7-1.4c0.3-0.1,1.7-0.8,2-0.5c-1.3-1.8-3.5-2.3-5.6-1.6
	c-1.1,0.4-2,0.9-2.8,1.4c0-0.2,0-0.5,0-0.7c1.7-0.9,3.5-2.2,5-3.9c1.4-1.4,2.2-3.3,2.3-5.2c0.1-0.8,0.1-1.6-0.1-2.4
	C15.4,12,15.3,11.5,15,11c0,0,0,0,0-0.1c4.2-0.9,9.3,1.6,11.1,5.8c3.2,5.9,3.2,14.1-1.5,19.3c4.7-5.2,4.9-13.4,1.8-19.5
	c-2.1-4.1-7.2-6.9-11.5-5.9c-0.1-0.1-0.2-0.3-0.3-0.4c-0.1-0.1-0.6-0.3-0.7-0.5c0.2,0.4,0.3,0.7,0.2,1.1c-0.4,0.1-0.8,0.3-1.2,0.6
	c0.1-1.8-0.3-3.6-0.8-5.4C11.9,4.9,11.3,4,10.6,3C9.4,1,7.3-0.9,5,0.5C4.4,0.8,4.3,2.1,5.1,2.3c1.5,0.3,0.5-2-0.2-0.9
	C4.9,0.6,6,0.1,6.7,0.2c0.6,0,1.4,0.5,1.9,0.9c2.3,1.8,2.8,4.9,3,7.7c0.1,1.4,0.2,2.7-0.1,4c-0.1,0.1-0.1,0.1-0.2,0.2
	c-2.4,2.7-3.5,5.6-3.9,8.7c-2,3.2-4.3,6.5-5.6,10.4c-1.6,3.6-2.1,7.7-1.5,11.6c0.3,1.8,0.8,3.6,1.6,5.2c1.8,3.9,5.5,6.3,9.7,6.8
	c-4,0.6-7.5,3-9.3,6.8c-0.8,1.6-1.3,3.4-1.6,5.2c-0.6,3.9-0.1,8,1.5,11.6C3.3,82.9,5.3,86,7.2,89c0.2,3.5,1.3,6.9,4,9.9
	c0.2,0.3,0.5,0.5,0.7,0.7c0.1,1,0,2,0,3c-0.1,2.8-0.6,5.9-3,7.7c-0.5,0.3-1.3,0.8-1.9,0.9c-0.6,0-1.8-0.5-1.7-1.2
	c0.7,1.2,1.6-1.2,0.2-0.9c-0.8,0.2-0.7,1.4-0.1,1.8c2.3,1.4,4.4-0.6,5.6-2.5c0.7-1,1.3-2,1.6-3.2c0.4-1.5,0.8-3.1,0.8-4.6
	c0.4,0.2,0.7,0.3,1.1,0.5c0,0.1-0.1,0.3-0.2,0.4c0-0.1,0.3-0.2,0.5-0.3c4.3,1.1,9.4-1.8,11.6-5.9c3.1-6.1,3-14.3-1.8-19.5
	c4.6,5.2,4.7,13.4,1.5,19.3c-1.7,4.2-6.9,6.7-11,5.8c0.2-0.2,0.3-0.4,0.4-0.6c0.3-0.5,0.4-1,0.5-1.6C16,98,16,97.1,16,96.3
	c-0.2-1.9-1-3.8-2.3-5.2c-1.6-1.8-3.5-3.1-5.2-4c-0.1,0-0.1,0-0.2-0.1c0-0.2,0-0.5,0-0.7c0.9,0.6,1.9,1.1,3.1,1.6
	c2.1,0.7,4.3,0.2,5.6-1.6c-0.3,0.3-1.7-0.4-2-0.5c-0.6-0.3-1.2-0.8-1.7-1.4c-0.5-0.7-0.5-1.4-0.4-2.2c0.1-0.8-0.6-1.4-1.1-1.9
	c-0.6-0.5-1.2-0.9-1.9-1.2c-0.1,0-0.1-0.1-0.2-0.1c0.7-2,1.5-4,2.4-5.9c0.2-0.1,0.3-0.3,0.4-0.5c0.1-0.3,0.2-0.6,0.3-0.9
	c1.4-2.7,3.1-5.4,4.8-8c0.5,1.3,0.9,2.5,1.3,3.8c0.3,1.1,0.6,2.2,0.8,3.4c-1.3,1.9-2.4,3.9-3.3,6c-0.4,1.9-0.8,4.4,1.5,5.8
	c2.7,1.2,4.1-2.4,3.7-4c0-2.3-0.4-4.6-0.9-6.8c1.9-3.1,4-6,6.2-9c1,1.6,2.1,3.3,3,4.9c-1.1,2.2-2,4.6-1.5,7.2c-0.2,2,3.1,3.8,3.9,1
	c1-2.4,0.1-5.4-1.5-8.6c0.4-0.7,0.7-1.4,1.1-2.1c1-1.5,2.1-3,3.2-4.5c1.6,2.6,3,5.4,3.7,8.3c-0.5,0.1-1.1,0-1.2-0.5
	c0.7,0.3,0.7-0.8,0.6-1.1c-0.2-0.4-0.7-0.7-1.1-0.7c-0.9,0-1.8,1.1-1.8,1.9c-0.1,1,1,1.9,1.9,2.2c0.7,0.3,1.4,0.2,2.1-0.2
	c0.2,0.9,0.3,1.8,0.3,2.7c0-0.9-0.1-1.8-0.3-2.7c1.4-0.8,2.3-2.8,1.3-4.1c0.4,0.3,0.8,0.4,0.9,1c0.1,0.4,0,1-0.4,1.3
	c1.1-0.3,2.1-0.9,2.2-2.3c0.1-1.4-0.8-2.2-1.9-2.9c1.3-0.4,3.4,1.5,2.6,2.8c1.3-0.9,2.5-2.5,1-3.8c0.5,0.4,1-0.2,1-0.7
	c0-0.5-0.3-1-0.7-1.2c-0.4-0.3-0.9-0.1-1.4-0.3c-0.5-0.2-0.8-0.8-0.2-1.2c0.1-0.1,0.3-0.1,0.5-0.1c0.7,0.4,1.4,0.7,2.2,1
	c0,0,0,0,0.1,0c0.5,0.2,1,0.4,1.6,0.5c2.8,0.7,5.9,0.8,8.5-0.6c1.1-0.3,2.1-1,2.8-1.9c0.9-0.7,1.2-1.6,1.1-2.6
	c0.1-0.9-0.2-1.9-1.1-2.6c-0.7-0.9-1.7-1.6-2.8-1.9c-3.1-1.7-6.9-1.2-10.1-0.1c-0.9,0.3-1.7,0.7-2.5,1.2c0,0,0,0,0,0
	c-0.6-0.4-0.3-1,0.3-1.2c0.4-0.1,1,0.1,1.4-0.2c0.4-0.2,0.7-0.7,0.7-1.2c0-0.5-0.5-1.1-1-0.7c1.7-1.2,0.6-2.8-0.7-3.9
	c0.7,1.4-1.5,3.2-2.8,2.7c1.1-0.6,2.1-1.3,2.1-2.7c-0.1-1.3-1-2-2.1-2.4c0.4,0.2,0.5,0.9,0.3,1.3c-0.2,0.5-0.6,0.6-1,0.9
	c1.2-1.5-0.1-4-1.9-4.5c0.1-0.8,0.2-1.6,0.2-2.3c-0.1,0.8-0.1,1.6-0.3,2.3c-0.4-0.1-0.9-0.1-1.3,0c-0.9,0.3-2,1.1-2,2.2
	c0,0.8,0.8,1.9,1.7,2c0.2,0,0.4,0,0.5-0.1c-0.8,2.2-1.8,4.2-3.1,6.2c-1.2-1.5-2.2-3-3.2-4.5c-0.4-0.7-0.7-1.4-1.1-2.1
	c1.6-3.1,2.5-6.2,1.5-8.6C31.7,33,28.4,34.8,28.6,36.7z M17.8,34.6c-2.2-4.1,3.2-6.9,3.1-1.5c0,1.9-0.2,3.9-0.6,5.8
	C19.4,37.6,18.6,36.1,17.8,34.6z M20.9,78.7c0.1,5.4-5.2,2.6-3.1-1.5c0.8-1.5,1.6-2.9,2.5-4.3C20.6,74.8,20.9,76.8,20.9,78.7z
	 M31.2,69.8c1.1,1.9,1.7,4.1,0.4,6c-0.9,1.3-1.9,0.9-2.2-0.9c-0.4-2.1,0.3-4.2,1.2-6.3C30.7,69,31,69.4,31.2,69.8z M19.7,44.5
	c0.3-0.9,0.5-1.8,0.8-2.7c1.9,2.7,4,5.3,6.1,7.9c-1.2,1.9-2.5,3.8-3.8,5.7c-0.1-0.2-0.3-0.4-0.4-0.5c-1.4-2-2.8-4.1-4.3-6.2
	C18.6,47.3,19.2,45.9,19.7,44.5z M39,56.1c0,0,0,0.1,0,0.1c-1.4,1.2-2.6,2.6-3.8,4c-0.9-1.5-1.9-2.9-2.9-4.3c1-1.4,2-2.8,2.9-4.3
	c1.2,1.4,2.4,2.8,3.8,4C39,55.8,39,55.9,39,56.1z M27.2,61.4c-1.5-2.1-3-4-4.1-5.5c1.1-1.5,2.6-3.4,4.1-5.5c1.5,1.8,3.1,3.6,4.5,5.5
	C30.3,57.8,28.7,59.6,27.2,61.4z M13.7,55.7c0.3,0,0.5-0.1,0.8-0.1c0,0,0,0.1,0,0.1C14.3,55.7,14,55.7,13.7,55.7z M15.1,55.6
	C15.1,55.6,15.1,55.6,15.1,55.6C15.1,55.6,15.1,55.6,15.1,55.6c1-2.1,1.9-4.2,2.8-6.4c1,1.4,1.9,2.8,2.7,4.1
	c0.6,0.9,1.2,1.8,1.8,2.6c-0.6,0.9-1.2,1.8-1.8,2.6c-0.8,1.2-1.8,2.6-2.7,4.1C17,60.4,16,58.1,15,55.9C15,55.8,15.1,55.7,15.1,55.6z
	 M11.1,37.9c-0.2-0.1-0.4-0.2-0.7-0.2c0.2-0.2,0.3-0.3,0.3-0.4C10.9,37.4,11,37.7,11.1,37.9z M14.1,11.2c0,0.2-0.1,0.3-0.2,0.5
	c-0.4,0.8-0.7,1.7-1.5,2.1c0.3-0.7,0.4-1.4,0.5-2.1C13.3,11.5,13.7,11.3,14.1,11.2z M10,15c0.3-0.8,0.8-1.5,1.3-2
	c-0.2,1.1-0.6,2.2-1.1,3.3c-0.5,1-1,2.1-1.6,3.1C9,17.9,9.4,16.5,10,15z M7.2,24.7c0,0.3,0,0.5,0.1,0.8c-0.4,0.3-0.8,0.6-1.1,0.9
	C5.5,26.6,6.2,25.5,7.2,24.7z M4,36.8c0.2-0.3,0.4-0.6,0.7-0.9c0.3-0.4,0.6-0.7,1-1c1-0.9,2.1-1.6,3.3-2.3c0.5,1.4,1.1,2.8,1.7,4.2
	c-0.2-0.2-0.5-0.3-0.8-0.4c-0.7-0.2-4.3,0.2-4.3,1.4c0-0.3,0.2-1.9,0.8-1.6C5.3,35.8,4.6,36.2,4,36.8z M9.4,52.7
	c-0.6-1.1-0.3-2.5-1-3.4c-0.3-0.4-1-0.8-1.3-0.4c-0.2,0.3-0.1,0.6,0,0.8c-0.3-0.6-0.9-1.5-2.1-1.9c-1.7,0.4-0.7,2.5-0.4,3.7
	c0,0.1,0.1,0.1,0.1,0.2c-0.5-0.5-0.9-1.1-1.3-1.8c-1-1.9-1.7-6.1,0.4-7.5C4,42.3,5.2,41.8,5.3,42c0.1,0.1,0.2,0.2,0.2,0.3
	c1.3-1.1-1.4-3.2-2.4-1.2c1-2,3.8-3.6,5.7-1.4c0.7,1.1,0.7,2.9-0.1,3.6c-0.9,0.8-2,0.1-2.3-0.5c0,0,0,0.1,0,0.1l0,0
	c-0.6,0.9,1.5,3.6,3.8,2c1.3-1.3,1.3-3,0.7-4c0.1,0.1,0.2,0.1,0.4,0.2c0.6,0.2,1.1,0.1,1.4,0.1c0,0,0,0.1,0,0.1c0-0.2,0-0.4,0-0.5
	c1.6,2.8,3.3,5.5,4.9,8c-0.8,2.3-1.8,4.6-2.7,6.9c-1.5-3.1-3-6.2-4.6-9.2c1.5,3.1,2.9,6.1,4.3,9.2c-0.5,0-1-0.1-1.6,0
	C11.4,55.2,10,54.1,9.4,52.7z M14.3,99.7c0.2,0.4,0.3,0.8,0.2,1.1c-0.4-0.1-0.8-0.3-1.2-0.5c0-0.9-0.2-1.9-0.5-2.8
	C13.6,98,13.9,98.9,14.3,99.7z M10.6,95c0.5,1.1,0.9,2.3,1.1,3.5c0.1,0.3,0.1,0.6,0.1,0.9c-0.7-0.7-1.4-1.5-1.8-2.6
	c-0.8-1.9-1.4-3.9-1.6-5.9C9.3,92.3,10,93.6,10.6,95z M7.2,86.4c-0.8-0.7-1.3-1.6-0.7-1.4c0.2,0.2,0.5,0.4,0.8,0.7
	C7.3,85.9,7.3,86.1,7.2,86.4z M5.9,76.4c-0.3-0.3-0.7-0.6-1-1c-0.3-0.3-0.5-0.6-0.7-0.9c0.6,0.6,1.3,1,2.3,0.7
	c-0.6,0.2-0.8-1.4-0.8-1.6c0,1.2,3.7,1.6,4.3,1.4c0.2-0.1,0.5-0.2,0.7-0.3c-0.6,1.3-1.2,2.7-1.7,4C8,78,6.9,77.3,5.9,76.4z M11.1,74
	c0-0.1-0.1-0.2-0.3-0.3c0.2-0.1,0.4-0.1,0.5-0.2C11.3,73.7,11.2,73.8,11.1,74z M13,70.5c0-0.2,0-0.3,0-0.4c0,0,0,0.1,0,0.1
	c-0.3-0.1-0.8-0.1-1.4,0c-0.1,0.1-0.3,0.1-0.4,0.2c0.5-1,0.6-2.7-0.7-4c-2.3-1.5-4.4,1.1-3.8,2l0,0c0,0,0,0.1,0,0.1
	c0.3-0.6,1.4-1.3,2.3-0.5c0.8,0.7,0.8,2.5,0.1,3.6c-1.9,2.2-4.7,0.6-5.7-1.4c1,2,3.7-0.2,2.4-1.2c-0.1,0.1-0.2,0.2-0.2,0.3
	c-0.1,0.2-1.3-0.3-1.4-0.4c-2.1-1.4-1.4-5.6-0.4-7.5c0.3-0.7,0.8-1.3,1.3-1.8c0,0.1-0.1,0.1-0.1,0.2c-0.3,1.2-1.3,3.3,0.4,3.7
	c1.2-0.5,1.8-1.3,2.1-1.9c-0.1,0.2-0.2,0.5,0,0.8c0.4,0.4,1,0.1,1.3-0.4c0.7-0.9,0.4-2.3,1-3.4c0.6-1.4,2-2.5,3.5-2.9
	c0.4,0,0.8,0,1.3-0.1c0,0.1,0.1,0.2,0.1,0.2c-1.4,3.2-2.9,6.4-4.4,9.6c1.6-3.1,3.1-6.1,4.6-9.2c1,2.3,1.9,4.6,2.7,6.9
	C16,65.4,14.5,67.9,13,70.5z M20.4,70.1c-0.2-0.9-0.5-1.8-0.8-2.7c-0.5-1.4-1-2.8-1.6-4.2c1.4-2.1,2.9-4.2,4.3-6.2
	c0.1-0.2,0.3-0.4,0.4-0.5c1.3,1.9,2.6,3.8,3.8,5.7C24.4,64.7,22.3,67.3,20.4,70.1z M31.5,65.2c-0.3,0.6-0.6,1.1-0.9,1.7
	c-0.9-1.6-1.9-3.2-2.9-4.7c1-1.3,2-2.6,3-3.9c0.5-0.6,0.9-1.2,1.4-1.9c1,1.4,2,2.7,2.9,4.1C33.8,62,32.6,63.6,31.5,65.2z M38.5,62.7
	c0.6,1.9,2.5,3.1,1.8,5.3c-0.2,0.6-0.5,1.1-1.1,1.3c0,0,0,0-0.1,0c-0.7-3-2-5.9-3.6-8.6c1.1-1.4,2.4-2.8,3.7-4
	c0.3,0.8,1.2,1.8,2,1.5C39.5,58.7,38,61,38.5,62.7z M59.6,58.4c0.5-0.7,0.9-1.4,1-2.2C60.7,57,60.4,57.8,59.6,58.4z M60.7,55.6
	c-0.1-0.8-0.5-1.5-1-2.2C60.4,54.1,60.7,54.8,60.7,55.6z M56.7,51.6c0.9,0.2,1.8,0.8,2.5,1.5c-0.2-0.1-0.3-0.2-0.5-0.3
	c0.2,0.1,0.4,0.2,0.5,0.3c0.8,0.8,1.4,1.8,1.5,2.8c-0.1,1-0.7,2-1.5,2.8c-0.2,0.1-0.3,0.2-0.5,0.3c0.2-0.1,0.4-0.2,0.5-0.3
	c-0.7,0.7-1.6,1.2-2.5,1.5c-2.3,1.2-4.9,1.2-7.4,0.7c0.7-0.2,1.5-0.7,1.6-1.5c0.1-0.9-0.7-1.4-1.5-1.5c1.7,0.2,2.6-0.4,3.6-1.7
	c-0.9-1.4-1.9-2-3.6-1.9c0.8-0.1,1.6-0.5,1.6-1.4c-0.1-0.8-0.9-1.4-1.6-1.6c-0.9-0.3-1.9,0-2.7,0.3c-0.4,0.2-1.4,0.8-2.1,0.8
	c0.7-0.4,1.4-0.7,2.1-1C49.9,50.5,53.6,50,56.7,51.6z M38.5,43c0.1-0.3,0.3-0.4,0.5-0.5c0,0.2-0.1,0.3-0.1,0.5
	C38.8,42.9,38.7,42.9,38.5,43z M38.6,44.6c0.2-0.1,0.4-0.3,0.5-0.4c0.1-0.2,0.2-0.8,0-1c0.1-0.2,0.1-0.4,0.2-0.6
	c0.3,0,0.5,0,0.8,0.1c0.6,0.2,0.9,0.8,1,1.4c0.6,2.2-1.4,3.4-2.1,5.2c-0.3,0.9-0.1,1.9,0.4,2.8c0.4,0.8,1.1,1.6,1.9,1.8
	c-1-0.3-1.7,0.6-2,1.5c-1.3-1.2-2.5-2.6-3.6-4C36.8,49.1,37.8,46.9,38.6,44.6z M31.5,46.7c1.1,1.6,2.2,3.1,3.5,4.6
	c-0.9,1.4-1.9,2.8-2.9,4.1c-0.5-0.6-0.9-1.3-1.4-1.9c-1-1.3-2-2.6-3-3.9c1.1-1.5,2.1-3.1,2.9-4.7C30.9,45.6,31.2,46.1,31.5,46.7z
	 M31.5,36.1c1.4,2,0.7,4.1-0.4,6c-0.2,0.4-0.5,0.8-0.7,1.2c-0.9-2.1-1.6-4.2-1.2-6.3C29.7,35.2,30.6,34.7,31.5,36.1z"/>
</svg>
