<?xml version="1.0" encoding="utf-8"?>
<!-- Generator: Adobe Illustrator 22.1.0, SVG Export Plug-In . SVG Version: 6.00 Build 0)  -->
<svg version="1.1" id="圖層_1" xmlns="http://www.w3.org/2000/svg" xmlns:xlink="http://www.w3.org/1999/xlink" x="0px" y="0px"
	 viewBox="0 0 263.4 56.8" style="enable-background:new 0 0 263.4 56.8;" xml:space="preserve">
<style type="text/css">
	.st0{enable-background:new    ;}
	.st1{fill:#963711;}
</style>
<g class="st0">
	<path class="st1" d="M19.2,1.4L19,1.7c-1.1,1.8-2,3.7-2.7,5.5l-0.2,0.4l-0.2-0.1C15.6,5.7,15,4.3,14,3.3s-2.2-1.6-3.6-1.6
		c-1.5,0-2.7,0.7-3.7,2C5.4,5.3,4.8,8,4.8,11.9c0,3.3,0.6,5.9,1.7,7.8s2.8,2.8,4.8,2.8c1.6,0,3-0.5,3.9-1.6s1.6-2.7,1.7-4.7
		c0-0.5,0.2-0.7,0.6-0.7c0.5,0,0.7,0.4,0.7,1.1c0,1.1-0.3,2.3-0.8,3.5c-1.1,2.6-3.3,3.9-6.8,3.9c-3,0-5.5-1.1-7.3-3.2
		s-2.7-5-2.7-8.7c0-3.4,0.9-6.2,2.8-8.5s4.2-3.4,6.9-3.4c1.3,0,2.8,0.3,4.5,1c0.9,0.3,1.6,0.5,2.2,0.5c0.6,0,1.2-0.2,1.7-0.5
		L19.2,1.4z M19.8,16.5c-0.2,2.9-1,5.1-2.4,6.6s-3.4,2.3-6,2.3c-2,0-3.8-0.6-5.5-1.8v-0.1c1.5,1,3.3,1.5,5.4,1.5
		c2.3,0,4.2-0.7,5.7-2.2c0.7-0.7,1.2-1.5,1.6-2.4s0.6-2.1,0.7-3.6l0-0.4L19.8,16.5z M14.1,4.4c-1.1-0.9-2.1-1.3-3-1.3
		c-3,0-4.6,2.9-4.6,8.7c0,2.6,0.4,4.8,1.1,6.6s1.7,2.9,3,3.4V22c-1.4-0.3-2.5-1.3-3.3-3.2S6,14.6,6,11.8c0-6.1,1.7-9.1,5-9.1
		c1.1,0,2.2,0.5,3.1,1.5V4.4z M20.5,2.2l-0.2,0.3c-1.3,2.2-2.3,4.2-3.1,6l-0.5-0.2l0.2-0.4c0.6-1.2,1.1-2.3,1.5-3.1l1.4-2.5L20.1,2
		L20.5,2.2z"/>
	<path class="st1" d="M31.5,0.6c2.8,0,5.1,1.1,6.8,3.2s2.6,5,2.6,8.6c0,3.4-0.8,6.1-2.5,8.2s-3.9,3-6.8,3c-2.2,0-4.2-0.7-6-2.1
		c-2.6-2.1-3.8-5.2-3.8-9.4c0-3.5,0.9-6.4,2.6-8.4S28.6,0.6,31.5,0.6z M31.5,2.1c-4,0-5.9,3.5-5.9,10.4c0,6.4,2,9.7,5.9,9.7
		c1.8,0,3.2-0.9,4.1-2.6s1.4-4.2,1.4-7.5c0-3.7-0.5-6.3-1.4-7.8C34.7,2.9,33.3,2.1,31.5,2.1z M37.1,1.5c1.7,0.8,3,2.2,4,4.1
		s1.5,4.2,1.5,6.8c0,3.8-1,6.8-2.9,9.1S35.3,25,32.2,25c-2,0-3.9-0.7-5.6-2v-0.1c1.5,1.1,3.3,1.6,5.5,1.6c2.9,0,5.4-1.1,7.2-3.3
		s2.8-5,2.8-8.5c0-2.6-0.4-4.8-1.3-6.7s-2.1-3.4-3.7-4.3V1.5z M35.3,4.7L35,4.6c-1.1-0.6-2.2-0.9-3.1-0.9c-3.1,0-4.6,3-4.6,9.1
		c0,4.4,1,7.4,2.9,8.8L30,21.7c-1.2-0.8-2-1.9-2.5-3.3s-0.7-3.2-0.7-5.5c0-6.5,1.7-9.8,5.1-9.8C33.4,3.2,34.6,3.7,35.3,4.7z"/>
	<path class="st1" d="M54,0.6c2.8,0,5.1,1.1,6.8,3.2s2.6,5,2.6,8.6c0,3.4-0.8,6.1-2.5,8.2s-3.9,3-6.8,3c-2.2,0-4.2-0.7-6-2.1
		c-2.6-2.1-3.8-5.2-3.8-9.4c0-3.5,0.9-6.4,2.6-8.4S51,0.6,54,0.6z M54,2.1c-4,0-5.9,3.5-5.9,10.4c0,6.4,2,9.7,5.9,9.7
		c1.8,0,3.2-0.9,4.1-2.6s1.4-4.2,1.4-7.5c0-3.7-0.5-6.3-1.4-7.8C57.2,2.9,55.8,2.1,54,2.1z M59.6,1.5c1.7,0.8,3,2.2,4,4.1
		S65,9.9,65,12.4c0,3.8-1,6.8-2.9,9.1S57.7,25,54.6,25c-2,0-3.9-0.7-5.6-2v-0.1c1.5,1.1,3.3,1.6,5.5,1.6c2.9,0,5.4-1.1,7.2-3.3
		s2.8-5,2.8-8.5c0-2.6-0.4-4.8-1.3-6.7s-2.1-3.4-3.7-4.3V1.5z M57.8,4.7l-0.3-0.2c-1.1-0.6-2.2-0.9-3.1-0.9c-3.1,0-4.6,3-4.6,9.1
		c0,4.4,1,7.4,2.9,8.8l-0.2,0.2c-1.2-0.8-2-1.9-2.5-3.3s-0.7-3.2-0.7-5.5c0-6.5,1.7-9.8,5.1-9.8C55.9,3.2,57,3.7,57.8,4.7z"/>
	<path class="st1" d="M66.7,0.8H75l-2.4,2.3v10.6l1-1.1V3.3l2-1.9l0.3,0.4l-1.8,1.8v8.6l5.4-6.5c0.8-0.9,1.2-1.8,1.2-2.5
		c0-0.4-0.2-0.9-0.7-1.3s-1-0.7-1.6-0.8V0.8h9.3V1c-2,0.5-4.2,2.1-6.6,5l-2.4,2.9L85,21.5l3,1.9h-9.1l2.3-1.7l-4.4-8.7l-2.9,3.5v5
		l2.9,3.4h-9l-0.5-0.5h8.4l-2.2-2.7v-5.4l3.1-3.8l-0.4-0.8L72.5,16v5.5l2.1,1.9h-8.1l2.4-2.1V2.9L66.7,0.8z M88.4,2.4
		c-1.7,0.1-3.5,1.1-5.2,3l-3.1,3.4l6.2,12.6l5,3.4H80.1l-0.5-0.5h10.2l-3.7-2.5L79.6,8.9l3.3-3.7c1.7-1.9,3.5-3,5.3-3.1L88.4,2.4z"
		/>
	<path class="st1" d="M91,0.8h8.3l-2.4,2.4v18.3l2.2,1.9H91l2.4-2V3L91,0.8z M100.1,1.8l-1.8,1.8v17.9l3,3.3h-9.1l-0.4-0.5h8.5
		l-2.4-2.7V3.4l2-2L100.1,1.8z"/>
	<path class="st1" d="M121,0.8l-0.3,0.3c-1.2,1.5-2.1,3.1-2.8,5c-0.1-0.3-0.2-0.5-0.3-0.6c-0.6-1.4-1.3-2.3-2.1-2.7s-2.1-0.6-4-0.6
		c-0.9,0-1.9,0-3.2,0.1v8.1h1.1V3.3c0.9-0.1,1.7-0.1,2.5-0.1c1.5,0,2.6,0.2,3.3,0.5s1.3,0.9,1.9,1.8c-0.2-0.1-0.3-0.2-0.4-0.3
		c-0.9-0.8-1.6-1.2-2.1-1.3s-1.3-0.2-2.5-0.2c-0.4,0-1,0-2,0.1l-0.4,0v6.7h3.2l2.3-3.1v7.6l-2.3-2.9h-4.8v9.9h1.1v-9h3.8l0.5,0.5
		H110v8.6c2.4,0,4.1-0.2,5.1-0.5s1.8-1,2.4-2l0.9-1.6c0-0.1,0.1-0.2,0.2-0.4c0.3,1.3,0.7,2.3,1.1,3.1s1.2,1.7,2.2,2.7h-19.7l2.7-2
		v-7.8c-1,0.1-1.9,0.4-2.7,0.9l-0.2-0.4c0.7-0.5,1.7-0.8,2.9-1V12c-0.2,0-0.3,0-0.4,0c-1.2,0-2.3,0.4-3.3,1.3
		c0.5-1.9,1.8-2.8,3.7-2.8V2.9l-2.7-2.1H121z M124,23.2l-0.9,1.6h-19.2l-0.3-0.5h19.2l0.6-1.1c-1.7-1.6-2.9-3.2-3.6-5l0.6,0.2
		c0.6,1.5,1.7,3,3.3,4.5L124,23.2z M116.7,7.9v7.8l-0.4-0.2V7.7L116.7,7.9z M121.9,2.1l-0.1,0.2c-1.4,1.9-2.4,3.5-2.9,4.8l-0.3-0.4
		c0.8-1.8,1.8-3.5,3-5L121.9,2.1z"/>
</g>
<g class="st0">
	<path class="st1" d="M129.1,39.4c-0.8,0-1.6-0.3-2.4-0.8s-1.4-1.2-1.9-2.1s-0.7-1.9-0.7-3.1c0-1.5,0.6-2.9,1.7-4.1
		c1.1-1.2,2.8-2.4,5.1-3.6c-0.1-0.7-0.2-1.3-0.2-1.6c0-1.2,0.2-2.3,0.7-3.3s1.1-1.9,1.9-2.7s1.6-1.3,2.5-1.7s1.7-0.6,2.5-0.6
		c0.9,0,1.7,0.2,2.3,0.7s0.9,1,0.9,1.7c0,0.9-0.2,1.8-0.7,2.5s-1.1,1.4-1.9,2s-1.7,1.2-2.8,1.9s-1.8,1.1-2,1.3
		c0.4,1.5,0.9,3,1.7,4.5c1.1-0.7,1.9-1.4,2.5-1.9c0.6-0.6,1.1-1.1,1.5-1.6s0.7-0.7,0.8-0.7c0.1,0,0.2,0.1,0.3,0.4s0.1,0.5,0.1,0.8
		c0,0.7-0.1,1.4-0.4,2s-0.6,1.3-1.1,1.9c-0.5,0.6-1.1,1.3-1.8,2l1.2,1.3c0.1-0.1,0.2-0.2,0.4-0.4s0.3-0.3,0.4-0.4s0.2-0.1,0.3-0.1
		c0.1,0,0.2,0,0.3,0.1s0.1,0.2,0.1,0.3c0,0.5-0.3,1.3-1,2.4s-1.2,1.7-1.7,1.7c-0.2,0-0.5-0.1-0.7-0.3s-0.5-0.5-0.8-0.9
		s-0.6-0.8-0.8-1.1c-1.3,1-2.5,1.8-3.6,2.4S129.9,39.4,129.1,39.4z M131.5,28c-0.9,0.6-1.6,1.2-2.3,1.9s-1.2,1.4-1.6,2
		c-0.4,0.7-0.6,1.2-0.6,1.6c0,0.9,0.4,1.3,1.2,1.3c0.6,0,1.4-0.2,2.3-0.6s2-0.9,3-1.7C133,31.5,132.3,29.9,131.5,28z M133.9,22.8
		v0.7c1.7-0.9,3-2,3.9-3s1.4-1.9,1.4-2.5c0-0.5-0.3-0.8-0.8-0.8c-0.5,0-1.1,0.3-1.8,0.9s-1.4,1.3-1.9,2.1S133.9,21.9,133.9,22.8z"/>
</g>
<g class="st0">
	<path class="st1" d="M147.8,32.8c2.8-1.8,5.9-2.8,9.4-2.8c2.5,0,4.6,0.6,6.2,1.7c1.6,1.1,2.4,2.6,2.4,4.4c0,2.4-1.4,4-4.1,4.8v0.2
		c0.3,0.1,0.6,0.2,1,0.3c1.3-0.3,2.3-0.9,3.1-1.9s1.1-2.1,1.1-3.4c0-1.7-0.7-3.1-2.1-4.4v-0.1l0.2,0.2c1.5,1.2,2.3,2.7,2.3,4.6
		c0,2.6-1.3,4.3-4,5.3c1.1,0.5,2,1.3,2.7,2.3s1,2.1,1,3.3c0,1.7-0.6,3.1-1.9,4.2s-3,1.6-5.1,1.6h-12.6l2.4-2.1v-7.6
		c-0.7,0-1.5,0.1-2.4,0.2l-0.1-0.5c1-0.1,1.9-0.2,2.6-0.2v-0.9h-0.4c-0.7,0-1.5,0-2.5,0.1l0.8-1.7l0.3,0c0.5,0,0.8,0.1,1,0.1
		c0.4,0,0.6,0,0.8,0.1v-6.6L147.8,32.8z M166.4,43.1c1.3,1,1.9,2.4,1.9,4.4c0,2-0.7,3.6-2.1,4.9c-1.4,1.3-3.4,1.9-6,1.9h-12
		l-0.3-0.5h11.1c2.4,0,4.2-0.2,5.2-0.7c2.4-1.1,3.6-3,3.6-5.7c0-1.5-0.5-2.9-1.6-4.1L166.4,43.1z M153.3,32.5v7.9c0.1,0,0.2,0,0.3,0
		l0.3,0c0,0,0.1,0,0.3,0v-7.2c1-0.5,2-0.7,3-0.7c1.1,0,2,0.2,2.6,0.6s1.2,1.1,1.6,2l-0.5-0.3c-0.9-1.3-2.1-2-3.8-2
		c-0.9,0-1.7,0.3-2.5,0.8v6.8h0.7c2.2,0,3.9-0.4,5-1.1s1.6-1.9,1.6-3.4c0-1.3-0.5-2.4-1.4-3.3c-0.9-0.8-2.1-1.2-3.6-1.2
		C155.8,31.4,154.5,31.8,153.3,32.5z M153.3,41.9v9.7h0.9v-8.6c0.8-0.1,1.4-0.1,1.8-0.1c1.9,0,3.4,0.2,4.2,0.5s1.6,1.1,2.1,2.1H162
		c-0.6-0.8-1.3-1.4-2.2-1.7s-2.1-0.5-3.8-0.5l-1.4,0v8.2h0.6l2.5-0.1c3.3-0.2,5-1.8,5-4.8c0-1.9-0.5-3.1-1.6-3.8s-3.1-1-6.1-1
		C154.6,41.8,154.1,41.8,153.3,41.9z"/>
	<path class="st1" d="M171.4,32.5c2.8-1.6,5.8-2.4,9-2.4c2.5,0,4.5,0.5,6.1,1.6c1.6,1.1,2.4,2.4,2.4,4.1c0,1.4-0.5,2.6-1.6,3.6
		s-2.5,1.8-4.3,2.3c0.8,2.2,1.9,4.4,3.3,6.5s2.8,3.7,4.2,4.9l-0.3,0.1c-1.7,0.6-3.5,1.4-5.1,2.5l-0.3,0.2l-0.1-0.6
		c-0.8-4.5-1.8-8.4-3.1-11.5l-0.1-0.2c-0.8,0.4-1.9,0.7-3.3,0.9l-0.1,0v6.6l3.1,3.3h-9.1l-0.3-0.5h8.4l-2.5-2.7v-7.1l0.4-0.1
		c1.3-0.1,2.5-0.4,3.4-0.8c-0.1-0.1-0.1-0.2-0.1-0.3l-0.2-0.5c0,0,0-0.1-0.1-0.2c-0.7,0.2-2.1,0.4-4.1,0.7l-0.2,0v7.8l2,2.1H171
		l2.3-2.1v-5.9l-0.1,0c-0.7,0.2-1.3,0.3-1.8,0.5l-0.1,0.1l-0.2-0.4c0.5-0.2,0.9-0.3,1.2-0.4l0.9-0.2l0.1,0v-0.9
		c-0.7,0-1.6,0.2-2.6,0.5l-0.2,0.1c0-0.2,0.1-0.5,0.4-1.1c0,0,0.1-0.3,0.2-0.8c0,0,0-0.1,0.1-0.2c0.5,0,0.9,0.1,1.2,0.1
		c0.3,0,0.6,0,0.9-0.1v-8.6c-0.5-0.3-1.1-0.6-1.7-0.8L171.4,32.5z M176.7,32v9.5c0.3,0,0.7,0,1-0.1v-8.6c0.6-0.2,1.4-0.3,2.3-0.3
		c2.3,0,3.8,0.8,4.7,2.3c-0.9-0.7-1.6-1.2-2.3-1.5s-1.4-0.4-2.4-0.4c-0.7,0-1.3,0.1-1.9,0.2v8.3l0.2,0c2.3-0.4,4-1.1,5.1-2
		s1.7-2.1,1.7-3.5c0-1.3-0.5-2.4-1.5-3.2c-1-0.8-2.3-1.3-3.8-1.3C178.6,31.3,177.6,31.6,176.7,32z M185.2,42.6
		c0.7,2.4,2,4.8,3.9,7.1c1.2,1.4,2.7,2.7,4.4,3.9c-2.7,0.7-5.2,1.8-7.6,3.3l-0.2,0.1l-0.4-0.3c2.2-1.5,4.6-2.5,7.2-3.2
		c-3.4-2.3-6-5.8-8-10.8l-0.1-0.3c3.6-1.4,5.4-3.4,5.4-6.2c0-1.1-0.5-2.4-1.4-3.8c1.2,1.1,1.8,2.4,1.8,4.1
		C190.4,39.1,188.6,41.2,185.2,42.6z"/>
	<path class="st1" d="M212.5,30.4l-0.3,0.3c-1.2,1.5-2.1,3.1-2.8,5c-0.1-0.3-0.2-0.5-0.3-0.6c-0.6-1.4-1.3-2.3-2.1-2.7
		s-2.1-0.6-4-0.6c-0.9,0-1.9,0-3.2,0.1V40h1.1v-7.2c0.9-0.1,1.7-0.1,2.5-0.1c1.5,0,2.6,0.2,3.3,0.5s1.3,0.9,1.9,1.8
		c-0.2-0.1-0.3-0.2-0.4-0.3c-0.9-0.8-1.6-1.2-2.1-1.3s-1.3-0.2-2.5-0.2c-0.4,0-1,0-2,0.1l-0.4,0V40h3.2l2.3-3.1v7.6l-2.3-2.9h-4.8
		v9.9h1.1v-9h3.8l0.5,0.5h-3.8v8.6c2.4,0,4.1-0.2,5.1-0.5s1.8-1,2.4-2l0.9-1.6c0-0.1,0.1-0.2,0.2-0.4c0.3,1.3,0.7,2.3,1.1,3.1
		s1.2,1.7,2.2,2.7h-19.7l2.7-2v-7.8c-1,0.1-1.9,0.4-2.7,0.9l-0.2-0.4c0.7-0.5,1.7-0.8,2.9-1v-0.8c-0.2,0-0.3,0-0.4,0
		c-1.2,0-2.3,0.4-3.3,1.3c0.5-1.9,1.8-2.8,3.7-2.8v-7.5l-2.7-2.1H212.5z M215.5,52.8l-0.9,1.6h-19.2l-0.3-0.5h19.2l0.6-1.1
		c-1.7-1.6-2.9-3.2-3.6-5l0.6,0.2c0.6,1.5,1.7,3,3.3,4.5L215.5,52.8z M208.2,37.5v7.8l-0.4-0.2v-7.8L208.2,37.5z M213.4,31.6
		l-0.1,0.2c-1.4,1.9-2.4,3.5-2.9,4.8l-0.3-0.4c0.8-1.8,1.8-3.5,3-5L213.4,31.6z"/>
	<path class="st1" d="M232.1,30.4l-1.8,2.1l2.9,7.7l0.7-0.4l-2.6-6.9l1.9-2.1l0.5,0.2l-1.8,2.1l2.5,6.6c0.1-0.1,0.2-0.2,0.2-0.2
		l0.6-0.5c0.4-0.3,0.6-0.5,0.7-0.6c0.3,1.3,0.8,2.5,1.4,3.6c-0.3,0-0.6,0-0.7,0c-1.1,0-1.9,0.2-2.4,0.5l3.2,8.6l2.6,2h-8.9l2.4-2
		l-2-5.1c-1.3,1.3-2.3,2.5-3,3.7l-0.4-0.1c0.7-1.1,1.7-2.4,3.1-3.8l0.1-0.2l-0.3-0.8c-1.4,1.2-2.5,2.5-3.5,4l-0.3-0.5
		c-0.6-1-1.4-2.1-2.3-3.3l-0.2-0.2c-0.9,2-1.4,3.6-1.4,4.9c0,0.7,0.1,1.4,0.4,1.9s0.9,1.4,1.8,2.6c0.1,0.1,0.2,0.3,0.4,0.5h-9.5
		l-0.4-0.5h8.9l-0.3-0.4c-0.8-0.9-1.3-1.7-1.5-2.2s-0.4-1.1-0.4-1.8c0-1.2,0.5-3,1.5-5.3l-0.8-0.8c-0.2,0.4-0.3,0.9-0.6,1.7
		l-0.6,1.8c-0.3,1-0.5,1.8-0.5,2.4c0,0.7,0.1,1.2,0.3,1.6s0.7,1,1.4,1.8c0.1,0.1,0.2,0.2,0.3,0.3h-8.8c1.7-0.9,3-2,4-3.5
		s1.9-3.7,2.9-6.8l0.1-0.2c-0.6-0.5-1.5-0.8-2.7-1c0.6-1,1.1-2,1.5-3c0.2,0.2,0.3,0.2,0.3,0.3l0.8,0.7c0.3,0.3,0.6,0.5,1,0.8
		l0.3-0.8l-0.2-0.2c-0.6-0.5-1.1-0.9-1.5-1.2l-0.2-0.1l0.3-0.4c0.6,0.4,1.2,0.9,1.8,1.4l2.4-6.6l-1.9-2H232.1z M227,34l-2.8,7.4
		c0.9,0.9,1.7,1.8,2.3,2.7l0.8,1.1c0,0,0.1,0.1,0.2,0.2c0.1-0.1,0.2-0.2,0.2-0.2l0.2-0.3c0,0,0.1-0.1,0.2-0.2
		c-0.8-1.3-1.8-2.4-2.9-3.4l2.3-5.9L227,34z M227.8,36l-1.9,5.1c0.1,0.1,0.2,0.2,0.2,0.2l0.7,0.8c0.4,0.4,0.9,1.1,1.5,2l0.2,0.3
		c0.5-0.6,1.1-1.3,1.8-1.9L227.8,36z M237.3,39c0.3,1.1,0.9,2.5,1.9,4.3c-0.3,0-0.4-0.1-0.4-0.1l-1.4-0.1c-0.6-0.1-1.1-0.1-1.4-0.1
		c0,0-0.2,0-0.4,0l2.9,7.8l3.9,3.5h-10.2l-0.3-0.5h9.3l-3.2-2.8l-3.1-8.3c0.4-0.1,0.9-0.2,1.4-0.2c0.6,0,1.3,0.1,2.1,0.2l-0.2-0.4
		c-0.8-1.4-1.3-2.6-1.5-3.7L237.3,39z"/>
	<path class="st1" d="M243.6,30.4h6.9c3.4,0,5.9,0.7,7.5,2c2.4,1.9,3.6,4.9,3.6,9c0,4.3-1.1,7.3-3.2,9.2c-1,0.9-2,1.5-3.2,1.8
		s-2.8,0.5-4.7,0.5h-7.5l2.4-1.8V32.4L243.6,30.4z M244.2,54.4l-0.3-0.5h6.4c3.2,0,5.6-0.4,7.2-1.3c3.5-1.9,5.3-5.5,5.3-10.9
		c0-3.6-0.8-6.3-2.4-8l-0.7-0.8c0,0-0.1-0.1-0.2-0.2c2.5,1.6,3.7,4.5,3.7,8.9c0,4.6-1.2,8-3.7,10.2c-1.9,1.7-5,2.5-9.2,2.5H244.2z
		 M248.9,31.8v19.7h1V33c0.6-0.1,1.2-0.1,1.7-0.1c1,0,1.7,0.1,2.3,0.3s1.1,0.5,1.7,1.1c-1.2-0.6-2.6-0.9-4-0.9c-0.3,0-0.7,0-1.2,0.1
		v18.2c1.3,0,2.3-0.1,3-0.3s1.3-0.6,1.9-1.3c1.7-1.7,2.5-4.6,2.5-8.7c0-4-0.9-6.7-2.8-8.1c-1.1-0.9-2.9-1.3-5.3-1.3H248.9z"/>
</g>
</svg>
