<?xml version="1.0" encoding="utf-8"?>
<!-- Generator: Adobe Illustrator 22.1.0, SVG Export Plug-In . SVG Version: 6.00 Build 0)  -->
<svg version="1.1" id="圖層_1" xmlns="http://www.w3.org/2000/svg" xmlns:xlink="http://www.w3.org/1999/xlink" x="0px" y="0px"
	 viewBox="0 0 175.5 26.3" style="enable-background:new 0 0 175.5 26.3;" xml:space="preserve">
<style type="text/css">
	.st0{fill:#963711;}
</style>
<g>
	<path class="st0" d="M27.3,16.5l-2.8,0.7c-0.2,0.9-0.3,2-0.4,3.3S24,22.9,24,24c-1.3,0.5-2.4,0.9-3.3,1.2s-1.9,0.5-3,0.8
		s-2.5,0.3-3.9,0.3c-2.3,0-4.3-0.4-6.1-1.1s-3.2-1.7-4.4-2.9s-2-2.6-2.5-4.1S0,15.2,0,13.6c0-1.8,0.3-3.5,0.9-5.1s1.5-3.1,2.7-4.4
		s2.6-2.3,4.4-3S11.6,0,13.8,0c0.3,0,0.6,0,0.8,0s0.4,0,0.7,0s0.7,0,1.2,0.1c1.4,0.1,2.8,0.1,4.1,0.1c1.2,0,2.1,0,2.9-0.1L23.7,6
		h-0.2l-1.1-3.9c-0.4-0.1-1-0.2-1.7-0.4s-1.4-0.2-2.3-0.3s-1.7-0.1-2.7-0.1c-2.1,0-3.8,0.3-5.3,1S7.6,3.8,6.7,4.9s-1.6,2.4-2,3.7
		S4,11.4,4,12.8c0,1.6,0.3,3.1,0.9,4.6s1.4,2.7,2.5,3.8s2.3,2,3.8,2.6s3,0.9,4.6,0.9c0.4,0,0.9,0,1.3-0.1s0.9-0.1,1.4-0.2
		s1-0.2,1.6-0.3c0.2-1,0.4-2.1,0.4-3.3c0-1.6-0.1-2.9-0.4-3.8l-4.5-0.6v-0.2h11.7V16.5z M15.9,0.7V0.5c-0.8-0.1-1.5-0.1-2.1-0.1
		c-1.9,0-3.6,0.3-5.2,1S5.6,3,4.4,4.2S2.3,6.8,1.7,8.4s-1,3.4-1,5.2c0,2.2,0.5,4.2,1.6,6.1S5,23.1,7,24.2s4.4,1.7,7.2,1.7
		c0.5,0,1.2-0.1,2.1-0.2v-0.1c-2.6,0-4.8-0.3-6.6-1.1s-3.3-1.7-4.5-2.9s-2-2.6-2.5-4S2,14.6,2,13.1c0-1.8,0.3-3.5,0.9-5
		s1.4-2.8,2.5-4s2.5-2,4.2-2.6s3.6-0.9,5.7-0.9H15.9z M21,17v6.9l1.2-0.4V17H21z"/>
	<path class="st0" d="M42.6,0.1l7.6,18.2c1,2.4,2.1,4.7,3.4,7l2.9,0.6v0.2H44.2V26l4.8-0.6c-0.2-1.2-0.5-2.4-1-3.8S47,19,46.4,18
		h-11c-0.5,1.2-0.8,2.2-1.1,2.9s-0.6,1.6-0.8,2.4s-0.4,1.5-0.5,2.1l4.6,0.6v0.2h-9.8V26l3.2-0.6c0.8-1.4,1.5-2.9,2.2-4.5l8.1-20.7
		H42.6z M40.8,5.1c-0.3,0.6-0.7,1.5-1.3,2.7s-1,2.3-1.4,3.4s-0.9,2.2-1.3,3.3s-0.8,2-0.9,2.3c0.7,0.1,1.5,0.2,2.4,0.2
		s1.8,0.1,2.6,0.1c2.1,0,3.7-0.1,5-0.2c-0.4-1.3-1.2-3.2-2.3-5.7S41.7,6.7,40.8,5.1z M41.1,3.6l9.1,21.8h1.2L41.6,2.1L41.1,3.6z"/>
	<path class="st0" d="M57.2,0.6V0.4h13.3v0.2l-4.4,0.6c-0.2,1.1-0.3,2.7-0.4,4.6s-0.2,3.6-0.2,5.1v7.6c0,1.8,0.1,3.7,0.3,5.7
		c2,0.6,4.1,0.9,6.2,0.9c1,0,2-0.1,2.8-0.2s1.5-0.2,1.8-0.3l1.8-4.8h0.3L78,26.1H57.2V26l4.2-0.6c0.1-0.6,0.3-1.6,0.4-3
		s0.2-2.9,0.2-4.5s0.1-2.6,0.1-3.3v-4.4c0-1,0-2.1-0.1-3.3s-0.1-2.4-0.2-3.3s-0.1-1.7-0.3-2.3L57.2,0.6z M62.5,1.1v24.4h1.2V1.1
		H62.5z"/>
	<path class="st0" d="M79.7,0.6V0.4H93v0.2l-4.4,0.6c-0.2,1.1-0.3,2.7-0.4,4.6s-0.2,3.6-0.2,5.1v7.6c0,1.8,0.1,3.7,0.3,5.7
		c2,0.6,4.1,0.9,6.2,0.9c1,0,2-0.1,2.8-0.2s1.5-0.2,1.8-0.3l1.8-4.8h0.3l-0.8,6.4H79.7V26l4.2-0.6c0.1-0.6,0.3-1.6,0.4-3
		s0.2-2.9,0.2-4.5s0.1-2.6,0.1-3.3v-4.4c0-1,0-2.1-0.1-3.3s-0.1-2.4-0.2-3.3s-0.1-1.7-0.3-2.3L79.7,0.6z M85,1.1v24.4h1.2V1.1H85z"
		/>
	<path class="st0" d="M101.9,0.6V0.4h18.7l0.4,5.5h-0.3l-1.3-4.3c-1-0.1-2.1-0.1-3.4-0.1c-2.3,0-4.1,0.2-5.5,0.5
		c-0.2,1.9-0.4,4.1-0.4,6.5c0,1.5,0,2.8,0.1,3.7c1.9,0.1,3,0.2,3.5,0.2c1.3,0,2.7-0.1,4.1-0.2l0.8-3h0.3v7.5h-0.3l-0.8-3.2
		c-1-0.1-2.1-0.2-3.4-0.2c-1.5,0-3,0.1-4.2,0.2c-0.2,1.4-0.2,2.7-0.1,4c0,1.7,0.1,3,0.1,4.1s0.1,2,0.2,2.8c1.4,0.4,3.3,0.7,5.6,0.7
		c1.3,0,2.5-0.1,3.4-0.2l1.4-4.2h0.2l-0.4,5.5H102V26l4.2-0.6c0.1-0.5,0.2-1.2,0.3-2.2s0.1-2.1,0.2-3.3s0.1-2.3,0.1-3.1s0-1.5,0-2.2
		v-4.4c0-0.6,0-1.4-0.1-2.4s-0.1-2.1-0.2-3.2s-0.2-2.2-0.3-3.3L101.9,0.6z M107.2,1.1v24.4h1.2V1.1H107.2z"/>
	<path class="st0" d="M127.6,15.7v-5.4c0-1.4,0-3-0.1-4.8s-0.2-3.2-0.4-4.2l-4.2-0.6V0.4h11.5c2.2,0,3.9,0.4,5.2,1.3s2.2,1.9,2.7,3
		s0.8,2.1,0.8,2.9c0,1.1-0.3,2.1-0.8,3s-1.2,1.6-2,2.1s-1.6,0.8-2.5,0.9v0.1c0.8,0.3,1.5,0.7,2,1.3c0.4,0.4,0.9,1,1.4,1.7
		s1.2,1.8,2.1,3s1.6,2.3,2.1,3s1,1.3,1.5,1.8c1,1,2,1.5,2.9,1.5v0.2h-3.1c-1.7,0-3.1-0.5-4.1-1.5c-0.4-0.4-0.8-0.9-1.2-1.4
		s-1-1.4-1.9-2.7s-1.6-2.3-2.1-3.1s-1-1.4-1.4-1.7c-0.5-0.5-1-0.8-1.4-1s-1-0.3-1.8-0.3c-0.7,0-1.3,0-1.7,0.1
		c-0.1,0.6-0.1,1.3-0.1,2.1v3.3c0,1.4,0.1,3.2,0.4,5.4L136,26v0.2h-13.1V26l4.1-0.6c0.2-1.2,0.3-2.8,0.4-5S127.6,16.6,127.6,15.7z
		 M128.1,1.1v24.4h1.3V1.1H128.1z M131.1,7.6v2.9c0,1,0,2,0.1,2.8c0.5,0.1,1.1,0.1,2,0.1c1.5,0,2.7-0.3,3.6-0.8s1.6-1.2,2-2
		s0.6-1.7,0.6-2.7c0-1-0.2-1.9-0.6-2.7s-0.9-1.5-1.5-2.1s-1.3-1-2-1.3s-1.5-0.5-2.2-0.5c-0.7,0-1.2,0-1.6,0.1
		c-0.1,0.7-0.2,1.7-0.3,2.9S131.1,6.8,131.1,7.6z M132.9,0.8V1c1.6,0,3,0.4,4,1.2s1.9,1.7,2.4,2.7S140,7,140,8.1c0,2.3-1,4-3.1,5.1
		l0.1,0.1c1.2-0.3,2.2-1,3-2s1.2-2.2,1.2-3.6c0-1.1-0.2-2.1-0.6-2.9s-1-1.6-1.7-2.2s-1.5-1-2.4-1.3s-1.8-0.5-2.7-0.5H132.9z
		 M137.4,16.3l3.8,5.5c0.9,1.3,1.7,2.2,2.4,2.8s1.6,0.8,2.5,0.9v-0.2c-0.9-0.3-2.1-1.5-3.6-3.6l-3.1-4.4c-0.7-1-1.3-1.7-1.8-2.2
		s-1.3-0.8-2.1-1l-0.1,0.1C136.2,14.8,136.9,15.4,137.4,16.3z"/>
	<path class="st0" d="M150.3,1.2l-3.6-0.6V0.4h13.7v0.2l-5.3,0.6c0.8,1.7,1.9,3.8,3.3,6.1s2.7,4.2,3.8,5.6c1.2-1.4,2.7-3.3,4.4-5.7
		s2.9-4.4,3.7-6l-5.2-0.6V0.4h10.2v0.2l-3,0.6c-0.7,0.8-1.4,1.7-2,2.5s-1.5,2-2.5,3.5s-1.8,2.6-2.4,3.5s-1.5,2.2-2.6,4
		c-0.1,1.4-0.1,3-0.1,4.8c0,2.4,0.2,4.4,0.5,5.8l4.4,0.6v0.2h-13.3V26l4.3-0.6c0.2-0.7,0.3-1.7,0.4-3s0.2-2.5,0.2-3.6
		c0-0.8,0-2.2-0.1-4c-0.7-1.2-1.5-2.7-2.6-4.4s-2.1-3.4-3.2-5S151.2,2.3,150.3,1.2z M159.8,25.5h1.2v-11l-8.4-13.4h-1.3l8.5,13.5
		V25.5z"/>
</g>
</svg>
