<?xml version="1.0" encoding="utf-8"?>
<!-- Generator: Adobe Illustrator 22.1.0, SVG Export Plug-In . SVG Version: 6.00 Build 0)  -->
<svg version="1.1" id="圖層_1" xmlns="http://www.w3.org/2000/svg" xmlns:xlink="http://www.w3.org/1999/xlink" x="0px" y="0px"
	 viewBox="0 0 308.3 140.9" style="enable-background:new 0 0 308.3 140.9;" xml:space="preserve">
<style type="text/css">
	.logo__0{
		fill-rule:evenodd;
		clip-rule:evenodd;
		fill: #751f05;
	}
	.logo__1{
		font-family:'BrushScriptMT';
		fill: #751f05;
	}
	.logo__2{
		font-size:33px;
		fill: #751f05;
	}
</style>
<g>
	<g>
		<path class="logo__0" d="M17.4,121.5c0-0.8,3-0.2,3,0.9c-0.1,2.7,3.1,3.9,3.9,3.3v0c2.6-2.3-10.8-11.3-19-3.5
			c-4.4,4.2-2.7,16.1,9.8,16.9c2.4,0.1,4.8,0,7.1-0.3c1.3,0.4,2.7,0.6,4.1,0.8c-3.9,1.1-7.8,1.6-11.8,1.3
			c-15.3-0.9-17.5-14-11.2-19.6c9.2-8.2,24.8,0.6,22.5,4.7c-0.1,0.2-0.3,0.4-0.5,0.6l0,0C23.4,128.2,17.3,125.2,17.4,121.5
			L17.4,121.5z M31.7,136c10.9-4.4,21.3-13,31.5-21.4c1.1-0.9,2.1-1.8,3.2-2.6c0,0.6-0.1,1.3-0.2,1.9c-0.7,0.6-1.4,1.1-2.1,1.7
			c-9.1,7.5-18.5,15.3-28.3,20.2C34.5,136,33.1,136,31.7,136L31.7,136z M70.2,108.9c4.2-3.4,8.5-6.6,13-9.2c0.8,0.7,1.3,1.7,1.5,2.7
			c-4.7,2.4-9.6,5.3-14.2,8.5C70.5,110.1,70.4,109.5,70.2,108.9L70.2,108.9z M87.1,97.7c5.1-2.4,10.7-3.9,17.2-4.1
			c10-0.3,19.5,3,27.9,8.9c1.1,0.8,2.2,1.6,3.2,2.5c-0.2,1-0.5,2-0.9,3c-1-0.8-2-1.6-3.1-2.4c-13-9.2-28.7-11.4-43-5
			C88.1,99.5,87.7,98.5,87.1,97.7L87.1,97.7z M138.8,108c4.1,4.2,7.5,9,10.3,14.1c-0.4,0.4-0.8,0.8-1.3,1.2
			c-2.8-4.6-6.1-8.9-10.1-12.7C138.1,109.8,138.5,109,138.8,108L138.8,108z M150.9,125.6c1.2,2.4,2.3,4.9,3.3,7.4v3.8
			c-1.3-3.5-2.8-6.9-4.5-10.1C150.1,126.3,150.5,125.9,150.9,125.6z"/>
		<path class="logo__0" d="M154.2,108.5c-1.8,3.3-3.8,6.5-6.1,9.4c-0.5-0.9-1.1-1.7-1.7-2.5c3-4.1,5.6-8.6,7.7-13.1V108.5L154.2,108.5z
			 M145.1,121.5c-10.2,11.4-24.3,18.8-41.3,18.8c-11.9,0-24.2-3.3-33.7-9.2c0.6-0.4,1.1-0.9,1.6-1.4c9.1,5.8,20.6,9.3,32,9.3
			c16.1,0,29.8-8.2,39.6-19.8C144,119.9,144.5,120.7,145.1,121.5L145.1,121.5z M66.5,128.5c0.6-0.4,1.2-0.9,1.8-1.3
			c-1.4-1.1-2.7-2.2-4-3.4c3.2-4.2,8-14.3,2.1-18c-6.6-4.2-15.5,1.6-9.5,12.3c0.6-0.5,1.2-1,1.8-1.5c-0.5-1-0.9-2-1.1-2.9
			c-1.5-6.2,4.3-8.1,7.8-5.9c5,3.1,0.4,11.7-2.1,15.1c-0.9-1-1.8-2-2.5-2.9c-0.6,0.5-1.1,0.9-1.7,1.4c0.8,1,1.8,2.1,2.9,3.2
			c-3.3,4.1-10,8.3-16.5,10.4c-7.4,2.3-15.7,3.4-22.6,1c-4.6-1.6-10.8-6.2-12.9-11.2c-2,1.5-3.6,7.2,11.1,12.3
			c8,2.8,18.3,1.4,24.7-0.7c6-2,12.9-5.5,17.2-10.8C64.1,126.6,65.3,127.6,66.5,128.5z"/>
		<path class="logo__0" d="M53.5,136.1c9.7-2.6,18.2-8.8,24.7-16.5c0.3,0.3,0.6,0.6,0.9,0.9C72,128.6,60.4,138.6,53.5,136.1L53.5,136.1z
			 M79.1,118.6c0.3,0.3,0.6,0.6,0.9,0.9c6.2,6.1,15.8,9.3,24.7,9.3c8.8,0,17.8-3.5,24.4-9.4c-0.3-0.3-0.6-0.7-0.9-1
			c-6.4,5.7-15.1,8.8-23.6,8.8c-8.6,0-17.3-3.7-23.2-9.6c-0.3-0.3-0.6-0.6-0.9-1c-2.2-2.4-3.7-5.1-4.6-8c-0.8,0.5-1.7,1.1-2.5,1.6
			C74.9,113.4,77,116.3,79.1,118.6L79.1,118.6z M72,105.8c-0.1-0.6-0.2-1.2-0.2-1.7c-0.8-11.2,15.7-12.1,15.7-0.4
			c0,4.7-2.3,9.1-5.2,13c-0.3-0.3-0.6-0.6-0.9-1c2.7-3.7,4.7-7.8,4.8-12.1c0.1-8.5-11.7-8.3-11.2-0.1C74,104.3,73,105,72,105.8
			L72,105.8z M129.3,117.5c-3.2-3.9-6.6-9.2-6.8-14.4c0-0.4,0-0.8,0-1.2c1.1,0.5,2.2,1,3.2,1.6l0,0.1c0.2,4.8,2,8.8,5,12.5
			c0.3,0.3,0.6,0.7,0.9,1c1.8,2.1,3.9,4.2,6,6.2c-0.4,0.4-0.8,0.7-1.2,1.1c-2.3-2.2-4.6-4.3-6.2-6
			C129.9,118.2,129.6,117.9,129.3,117.5L129.3,117.5z M141.2,127.2c2.2,2.5,4.4,5.2,5,8.5c0.4,2.1-0.8,4.5-3.2,4.5
			c-2.1,0-3.3-1.7-3-3.8c0.2-1.1,1-2.5,1.9-3.9c0.3,0.4,0.5,0.8,0.8,1.3c-0.7,1.2-0.8,2-0.8,2.8c0,1.3,0.8,1.8,1.6,1.9
			c1.2,0,1.6-0.8,1.5-1.8c-0.1-2.1-3.6-6.7-5.1-8.3C140.4,127.9,140.8,127.6,141.2,127.2L141.2,127.2z M144.2,129.1
			c0.3,0.4,0.5,0.7,0.8,1.1c2.6-3.4,6.1-6.6,9.1-8.3v-2.4C151.1,121.4,147,125.6,144.2,129.1L144.2,129.1z M125.1,96.8
			c4.7-3.9,14.1-1.4,13.1,7.5c-0.5,4.4-2.6,8.5-5.8,12c-0.3-0.3-0.6-0.7-0.8-1c2.9-3.3,4.8-7.1,5.3-11.1c0.7-6.1-5.3-8.1-8.8-5.8
			C127.1,97.8,126.1,97.2,125.1,96.8z"/>
		<path class="logo__0" d="M290.9,121.5c0-0.8-3-0.2-3,0.9c0.1,2.7-3.1,3.9-3.9,3.3v0c-2.6-2.3,10.8-11.3,19-3.5
			c4.4,4.2,2.7,16.1-9.8,16.9c-2.4,0.1-4.8,0-7.1-0.3c-1.3,0.4-2.7,0.6-4,0.8c3.9,1.1,7.8,1.6,11.8,1.3c15.3-0.9,17.4-14,11.2-19.6
			c-9.2-8.2-24.8,0.6-22.5,4.7c0.1,0.2,0.3,0.4,0.5,0.6h0C284.9,128.2,291.1,125.2,290.9,121.5L290.9,121.5z M276.6,136
			c-10.9-4.4-21.3-13-31.5-21.4c-1.1-0.9-2.1-1.8-3.2-2.6c0,0.6,0.1,1.3,0.2,1.9c0.7,0.6,1.4,1.1,2.1,1.7
			c9.1,7.5,18.5,15.3,28.3,20.2C273.8,136,275.2,136,276.6,136L276.6,136z M238.1,108.9c-4.2-3.4-8.5-6.6-13-9.2
			c-0.8,0.7-1.3,1.7-1.4,2.7c4.7,2.4,9.6,5.3,14.2,8.5C237.8,110.1,237.9,109.5,238.1,108.9L238.1,108.9z M221.2,97.7
			c-5.1-2.4-10.7-3.9-17.2-4.1c-10-0.3-19.5,3-27.9,8.9c-1.1,0.8-2.2,1.6-3.2,2.5c0.2,1,0.5,2,0.9,3c1-0.8,2.1-1.6,3.1-2.4
			c13-9.2,28.7-11.4,43-5C220.2,99.5,220.6,98.5,221.2,97.7L221.2,97.7z M169.5,108c-4.1,4.2-7.5,9-10.3,14.1
			c0.4,0.4,0.8,0.8,1.3,1.2c2.8-4.6,6.1-8.9,10.1-12.7C170.2,109.8,169.8,109,169.5,108L169.5,108z M157.4,125.6
			c-1.2,2.4-2.3,4.9-3.3,7.4v3.8c1.3-3.5,2.8-6.9,4.5-10.1C158.2,126.3,157.8,125.9,157.4,125.6z"/>
		<path class="logo__0" d="M154.2,108.5c1.8,3.3,3.8,6.5,6.1,9.4c0.5-0.9,1.1-1.7,1.7-2.5c-3-4.1-5.6-8.6-7.7-13.1V108.5L154.2,108.5z
			 M163.2,121.5c10.2,11.4,24.3,18.8,41.3,18.8c11.9,0,24.2-3.3,33.7-9.2c-0.6-0.4-1.1-0.9-1.6-1.4c-9.1,5.8-20.6,9.3-32,9.3
			c-16.1,0-29.8-8.2-39.6-19.8C164.3,119.9,163.8,120.7,163.2,121.5L163.2,121.5z M241.8,128.5c-0.6-0.4-1.2-0.9-1.8-1.3
			c1.4-1.1,2.7-2.2,4-3.4c-3.2-4.2-8-14.3-2.1-18c6.6-4.2,15.5,1.6,9.5,12.3c-0.6-0.5-1.2-1-1.8-1.5c0.5-1,0.9-2,1.1-2.9
			c1.5-6.2-4.3-8.1-7.8-5.9c-5,3.1-0.4,11.7,2.1,15.1c0.9-1,1.8-2,2.5-2.9c0.6,0.5,1.1,0.9,1.7,1.4c-0.8,1-1.8,2.1-2.9,3.2
			c3.3,4.1,10,8.3,16.5,10.4c7.4,2.3,15.7,3.4,22.6,1c4.6-1.6,10.8-6.2,12.9-11.2c2,1.5,3.6,7.2-11.1,12.3c-8,2.8-18.3,1.4-24.7-0.7
			c-6-2-12.9-5.5-17.2-10.8C244.2,126.6,243,127.6,241.8,128.5z"/>
		<path class="logo__0" d="M254.8,136.1c-9.7-2.6-18.2-8.8-24.7-16.5c-0.3,0.3-0.6,0.6-0.9,0.9C236.3,128.6,247.9,138.6,254.8,136.1
			L254.8,136.1z M229.2,118.6c-0.3,0.3-0.6,0.6-0.9,0.9c-6.2,6.1-15.8,9.3-24.7,9.3c-8.8,0-17.8-3.5-24.4-9.4c0.3-0.3,0.6-0.7,0.9-1
			c6.4,5.7,15.1,8.8,23.6,8.8c8.6,0,17.3-3.7,23.2-9.6c0.3-0.3,0.6-0.6,0.9-1c2.2-2.4,3.7-5.1,4.6-8c0.8,0.5,1.7,1.1,2.5,1.6
			C233.4,113.4,231.4,116.3,229.2,118.6L229.2,118.6z M236.3,105.8c0.1-0.6,0.2-1.2,0.2-1.7c0.8-11.2-15.7-12.1-15.7-0.4
			c0,4.7,2.3,9.1,5.2,13c0.3-0.3,0.6-0.6,0.9-1c-2.7-3.7-4.7-7.8-4.8-12.1c-0.1-8.5,11.7-8.3,11.2-0.1
			C234.3,104.3,235.3,105,236.3,105.8L236.3,105.8z M179,117.5c3.2-3.9,6.6-9.2,6.8-14.4c0-0.4,0-0.8,0-1.2c-1.1,0.5-2.2,1-3.2,1.6
			l0,0.1c-0.3,4.8-2,8.8-5,12.5c-0.3,0.3-0.6,0.7-0.9,1c-1.8,2.1-3.9,4.2-6,6.2c0.4,0.4,0.8,0.7,1.2,1.1c2.3-2.2,4.6-4.3,6.2-6
			C178.4,118.2,178.7,117.9,179,117.5L179,117.5z M167.1,127.2c-2.2,2.5-4.4,5.2-5,8.5c-0.4,2.1,0.8,4.5,3.2,4.5
			c2.1,0,3.3-1.7,3-3.8c-0.2-1.1-1-2.5-1.9-3.9c-0.3,0.4-0.5,0.8-0.8,1.3c0.6,1.2,0.8,2,0.8,2.8c0,1.3-0.8,1.8-1.6,1.9
			c-1.3,0-1.6-0.8-1.5-1.8c0.1-2.1,3.6-6.7,5.1-8.3C167.9,127.9,167.5,127.6,167.1,127.2L167.1,127.2z M164.1,129.1
			c-0.3,0.4-0.6,0.7-0.8,1.1c-2.6-3.4-6.1-6.6-9.1-8.3v-2.4C157.2,121.4,161.3,125.6,164.1,129.1L164.1,129.1z M183.2,96.8
			c-4.7-3.9-14.1-1.4-13.1,7.5c0.5,4.4,2.6,8.5,5.8,12c0.3-0.3,0.6-0.7,0.8-1c-2.9-3.3-4.8-7.1-5.3-11.1c-0.7-6.1,5.3-8.1,8.8-5.8
			C181.2,97.8,182.2,97.2,183.2,96.8z"/>
	</g>
	<path class="logo__0" d="M123,100.7c-15.6-9.5-25.8-28.6-25.8-46.4c0-30,25.7-54.3,56.9-54.3c31.2,0,56.9,24.3,56.9,54.3
		c0,17.4-10,36.2-25,46.1l-1.7-2.8c14.9-9.8,24.3-26,24.3-43.3c0-28.9-24.4-52.4-54.5-52.4c-30.1,0-54.5,23.5-54.5,52.4
		c0,17.7,9.5,33.9,24.9,43.6C126.1,98.9,125.3,102.1,123,100.7z"/>
	<path class="logo__0" d="M126.7,94c-13.2-8.8-21.5-23.9-21.5-39.3c0-13,5.5-24.8,14.4-33.3c8.9-8.5,21.1-13.8,34.7-13.8
		c13.5,0,25.8,5.3,34.7,13.8c8.9,8.5,14.3,20.3,14.3,33.3c0,15.5-8.3,30.5-21.5,39.3c-0.9-0.3-1.7-0.5-2.6-0.6
		c13.9-8.2,22.5-22.7,22.5-38.7c0-12.6-5.3-24-13.9-32.2c-8.6-8.2-20.4-13.3-33.5-13.3c-13.1,0-24.9,5.1-33.5,13.3
		c-8.6,8.2-13.9,19.6-13.9,32.2c0,16,8.6,30.5,22.5,38.7C128.4,93.5,127.5,93.7,126.7,94z"/>
</g>
<g>
	<g>
	</g>
</g>
<g>
	<g>
	</g>
</g>
<text transform="matrix(0.9949 0 0 1 106.5053 62.0308)" class="logo__1 logo__2">Cookie</text>
</svg>
