<svg width="0" height="0" class="hidden">
  <symbol xmlns="http://www.w3.org/2000/svg" xmlns:xlink="http://www.w3.org/1999/xlink" viewBox="0 0 706.9 309.5" id="header01">
    <defs>
      <pattern id="imgpattern" x="0" y="0" width="1" height="1" viewBox="0 0 1024 576" preserveAspectRatio="xMidYMid slice">
        <image x="-280" y="-50" width="1500" height="800" xlink:href="../img/header.jpg"></image>
      </pattern>
    </defs>
    <path fill="url(#imgpattern)" d="M706.8 16v156.3c-126.4-15.2-211.8 9.2-267 35-57.4 26.9-67.1 48.2-138 73C274 290 197.2 314 96.2 308.8c-36.1-1.9-68.4-7.1-96.2-13.6V122.9c74.7 28.1 134.7 28.4 171.6 25 71.2-6.6 127.8-33.7 204.6-70.5C451.3 41.4 455 30 496.7 16 575.8-10.6 651.9.6 706.8 16z"></path>
    <path fill="url(#imgpattern)" d="M0 284.2v10.9c27.8 6.5 60.1 11.8 96.2 13.6 101 5.2 177.8-18.8 205.6-28.5 70.9-24.8 80.6-46.1 138-73 55.2-25.8 140.6-50.2 267-35V15.9c-54.9-15.3-131-26.6-210.2 0-41.6 14-45.4 25.4-120.5 61.4-76.8 36.8-133.4 63.9-204.6 70.5-36.9 3.4-96.9 3.1-171.6-25 .1 0 .1 123.5.1 161.4z" stroke="#000" stroke-miterlimit="10"></path>
  </symbol>
</svg>
