<svg aria-hidden="true" style="position: absolute; width: 0; height: 0; overflow: hidden;" version="1.1" xmlns="http://www.w3.org/2000/svg" xmlns:xlink="http://www.w3.org/1999/xlink">
<defs>

<symbol id="border_btn_left" viewBox="0 0 60.7 111.3">
<path class="st0" d="M32.2,74.6c0.4-2.6-0.4-5-1.5-7.2c1-1.7,2-3.3,3-4.9c2.2,2.9,4.3,5.9,6.2,9c-0.5,2.2-0.9,4.5-0.9,6.8
	c-0.3,1.6,1.1,5.2,3.7,4c2.2-1.4,1.9-3.9,1.5-5.8c-0.9-2.1-2-4.1-3.3-6c0.3-1.1,0.5-2.3,0.8-3.4c0.4-1.3,0.9-2.5,1.3-3.8
	c1.9,2.8,3.7,5.7,5.2,8.7c0,0.2,0.1,0.5,0.2,0.6c0.1,0.1,0.2,0.2,0.3,0.3c1,2,1.8,4.1,2.5,6.2c-0.7,0.4-1.3,0.7-1.9,1.2
	c-0.6,0.5-1.3,1.1-1.1,1.9c0.1,0.8,0,1.5-0.4,2.1c-0.4,0.6-1,1.1-1.7,1.4c-0.3,0.1-1.7,0.8-2,0.5c1.3,1.8,3.5,2.3,5.6,1.6
	c1.1-0.4,2-0.9,2.8-1.4c0,0.2,0,0.5,0,0.7c-1.7,0.9-3.5,2.2-5,3.9c-1.4,1.4-2.2,3.3-2.3,5.2c-0.1,0.8-0.1,1.6,0.1,2.4
	c0.1,0.6,0.2,1.1,0.5,1.6c0,0,0,0,0,0.1c-4.2,0.9-9.3-1.6-11.1-5.8c-3.2-5.9-3.2-14.1,1.5-19.3c-4.7,5.2-4.9,13.4-1.8,19.5
	c2.1,4.1,7.2,6.9,11.5,5.9c0.1,0.1,0.2,0.3,0.3,0.4c0.1,0.1,0.6,0.3,0.7,0.5c-0.2-0.4-0.3-0.7-0.2-1.1c0.4-0.1,0.8-0.3,1.2-0.6
	c-0.1,1.8,0.3,3.6,0.8,5.4c0.3,1.2,0.9,2.1,1.6,3.2c1.2,1.9,3.3,3.9,5.6,2.5c0.6-0.4,0.7-1.6-0.1-1.8c-1.5-0.3-0.5,2,0.2,0.9
	c0.1,0.8-1.1,1.3-1.7,1.2c-0.6,0-1.4-0.5-1.9-0.9c-2.3-1.8-2.8-4.9-3-7.7c-0.1-1.4-0.2-2.7,0.1-4c0.1-0.1,0.1-0.1,0.2-0.2
	c2.4-2.7,3.5-5.6,3.9-8.7c2-3.2,4.3-6.5,5.6-10.4c1.6-3.6,2.1-7.7,1.5-11.6c-0.3-1.8-0.8-3.6-1.6-5.2c-1.8-3.9-5.5-6.3-9.7-6.8
	c4-0.6,7.5-3,9.3-6.8c0.8-1.6,1.3-3.4,1.6-5.2c0.6-3.9,0.1-8-1.5-11.6c-1.2-3.6-3.2-6.7-5.1-9.7c-0.2-3.5-1.3-6.9-4-9.9
	c-0.2-0.3-0.5-0.5-0.7-0.7c-0.1-1,0-2,0-3c0.1-2.8,0.6-5.9,3-7.7c0.5-0.3,1.3-0.8,1.9-0.9c0.6,0,1.8,0.5,1.7,1.2
	c-0.7-1.2-1.6,1.2-0.2,0.9c0.8-0.2,0.7-1.4,0.1-1.8C53.1-0.9,51,1,49.8,3c-0.7,1-1.3,2-1.6,3.2c-0.4,1.5-0.8,3.1-0.8,4.6
	c-0.4-0.2-0.7-0.3-1.1-0.5c0-0.1,0.1-0.3,0.2-0.4c0,0.1-0.3,0.2-0.5,0.3c-4.3-1.1-9.4,1.8-11.6,5.9c-3.1,6.1-3,14.3,1.8,19.5
	c-4.6-5.2-4.7-13.4-1.5-19.3c1.7-4.2,6.9-6.7,11-5.8c-0.2,0.2-0.3,0.4-0.4,0.6c-0.3,0.5-0.4,1-0.5,1.6c-0.1,0.8-0.2,1.6-0.1,2.4
	c0.2,1.9,1,3.8,2.3,5.2c1.6,1.8,3.5,3.1,5.2,4c0.1,0,0.1,0,0.2,0.1c0,0.2,0,0.5,0,0.7c-0.9-0.6-1.9-1.1-3.1-1.6
	c-2.1-0.7-4.3-0.2-5.6,1.6c0.3-0.3,1.7,0.4,2,0.5c0.6,0.3,1.2,0.8,1.7,1.4c0.5,0.7,0.5,1.4,0.4,2.2c-0.1,0.8,0.6,1.4,1.1,1.9
	c0.6,0.5,1.2,0.9,1.9,1.2c0.1,0,0.1,0.1,0.2,0.1c-0.7,2-1.5,4-2.4,5.9c-0.2,0.1-0.3,0.3-0.4,0.5c-0.1,0.3-0.2,0.6-0.3,0.9
	c-1.4,2.7-3.1,5.4-4.8,8c-0.5-1.3-0.9-2.5-1.3-3.8c-0.3-1.1-0.6-2.2-0.8-3.4c1.3-1.9,2.4-3.9,3.3-6c0.4-1.9,0.8-4.4-1.5-5.8
	c-2.7-1.2-4.1,2.4-3.7,4c0,2.3,0.4,4.6,0.9,6.8c-1.9,3.1-4,6-6.2,9c-1-1.6-2.1-3.3-3-4.9c1.1-2.2,2-4.6,1.5-7.2c0.2-2-3.1-3.8-3.9-1
	c-1,2.4-0.1,5.4,1.5,8.6c-0.4,0.7-0.7,1.4-1.1,2.1c-1,1.5-2.1,3-3.2,4.5c-1.6-2.6-3-5.4-3.7-8.3c0.5-0.1,1.1,0,1.2,0.5
	c-0.7-0.3-0.7,0.8-0.6,1.1c0.2,0.4,0.7,0.7,1.1,0.7c0.9,0,1.8-1.1,1.8-1.9c0.1-1-1-1.9-1.9-2.2c-0.7-0.3-1.4-0.2-2.1,0.2
	c-0.2-0.9-0.3-1.8-0.3-2.7c0,0.9,0.1,1.8,0.3,2.7c-1.4,0.8-2.3,2.8-1.3,4.1c-0.4-0.3-0.8-0.4-0.9-1c-0.1-0.4,0-1,0.4-1.3
	c-1.1,0.3-2.1,0.9-2.2,2.3C17,46,18,46.8,19.1,47.4c-1.3,0.4-3.4-1.5-2.6-2.8c-1.3,0.9-2.5,2.5-1,3.8c-0.5-0.4-1,0.2-1,0.7
	c0,0.5,0.3,1,0.7,1.2c0.4,0.3,0.9,0.1,1.4,0.3c0.5,0.2,0.8,0.8,0.2,1.2c-0.1,0.1-0.3,0.1-0.5,0.1c-0.7-0.4-1.4-0.7-2.2-1
	c0,0,0,0-0.1,0c-0.5-0.2-1-0.4-1.6-0.5c-2.8-0.7-5.9-0.8-8.5,0.6c-1.1,0.3-2.1,1-2.8,1.9c-0.9,0.7-1.2,1.6-1.1,2.6
	c-0.1,0.9,0.2,1.9,1.1,2.6c0.7,0.9,1.7,1.6,2.8,1.9c3.1,1.7,6.9,1.2,10.1,0.1c0.9-0.3,1.7-0.7,2.5-1.2c0,0,0,0,0,0
	c0.6,0.4,0.3,1-0.3,1.2c-0.4,0.1-1-0.1-1.4,0.2c-0.4,0.2-0.7,0.7-0.7,1.2c0,0.5,0.5,1.1,1,0.7c-1.7,1.2-0.6,2.8,0.7,3.9
	c-0.7-1.4,1.5-3.2,2.8-2.7c-1.1,0.6-2.1,1.3-2.1,2.7c0.1,1.3,1,2,2.1,2.4c-0.4-0.2-0.5-0.9-0.3-1.3c0.2-0.5,0.6-0.6,1-0.9
	c-1.2,1.5,0.1,4,1.9,4.5c-0.1,0.8-0.2,1.6-0.2,2.3c0.1-0.8,0.1-1.6,0.3-2.3c0.4,0.1,0.9,0.1,1.3,0c0.9-0.3,2-1.1,2-2.2
	c0-0.8-0.8-1.9-1.7-2c-0.2,0-0.4,0-0.5,0.1c0.8-2.2,1.8-4.2,3.1-6.2c1.2,1.5,2.2,3,3.2,4.5c0.4,0.7,0.7,1.4,1.1,2.1
	c-1.6,3.1-2.5,6.2-1.5,8.6C29,78.4,32.3,76.5,32.2,74.6z M42.9,76.7c2.2,4.1-3.2,6.9-3.1,1.5c0-1.9,0.2-3.9,0.6-5.8
	C41.3,73.8,42.2,75.2,42.9,76.7z M39.9,32.6c-0.1-5.4,5.2-2.6,3.1,1.5c-0.8,1.5-1.6,2.9-2.5,4.3C40.1,36.5,39.9,34.5,39.9,32.6z
	 M29.6,41.6c-1.1-1.9-1.7-4.1-0.4-6c0.9-1.3,1.9-0.9,2.2,0.9c0.4,2.1-0.3,4.2-1.2,6.3C30,42.3,29.8,42,29.6,41.6z M41.1,66.8
	c-0.3,0.9-0.5,1.8-0.8,2.7c-1.9-2.7-4-5.3-6.1-7.9c1.2-1.9,2.5-3.8,3.8-5.7c0.1,0.2,0.3,0.4,0.4,0.5c1.4,2,2.8,4.1,4.3,6.2
	C42.1,64,41.6,65.4,41.1,66.8z M21.7,55.2c0,0,0-0.1,0-0.1c1.4-1.2,2.6-2.6,3.8-4c0.9,1.5,1.9,2.9,2.9,4.3c-1,1.4-2,2.8-2.9,4.3
	c-1.2-1.4-2.4-2.8-3.8-4C21.7,55.5,21.7,55.4,21.7,55.2z M33.6,49.9c1.5,2.1,3,4,4.1,5.5c-1.1,1.5-2.6,3.4-4.1,5.5
	c-1.5-1.8-3.1-3.6-4.5-5.5C30.5,53.6,32,51.7,33.6,49.9z M47,55.6c-0.3,0-0.5,0.1-0.8,0.1c0,0,0-0.1,0-0.1
	C46.5,55.6,46.7,55.6,47,55.6z M45.6,55.7C45.6,55.7,45.6,55.7,45.6,55.7C45.6,55.7,45.6,55.7,45.6,55.7c-1,2.1-1.9,4.2-2.8,6.4
	c-1-1.4-1.9-2.8-2.7-4.1c-0.6-0.9-1.2-1.8-1.8-2.6c0.6-0.9,1.2-1.8,1.8-2.6c0.8-1.2,1.8-2.6,2.7-4.1c0.9,2.3,1.9,4.5,2.9,6.7
	C45.7,55.5,45.7,55.6,45.6,55.7z M49.6,73.4c0.2,0.1,0.4,0.2,0.7,0.2C50,73.8,50,74,49.9,74.1C49.8,73.9,49.7,73.7,49.6,73.4z
	 M46.6,100.1c0-0.2,0.1-0.3,0.2-0.5c0.4-0.8,0.7-1.7,1.5-2.1c-0.3,0.7-0.4,1.4-0.5,2.1C47.4,99.8,47,100,46.6,100.1z M50.7,96.3
	c-0.3,0.8-0.8,1.5-1.3,2c0.2-1.1,0.6-2.2,1.1-3.3c0.5-1,1-2.1,1.6-3.1C51.8,93.4,51.3,94.8,50.7,96.3z M53.6,86.6
	c0-0.3,0-0.5-0.1-0.8c0.4-0.3,0.8-0.6,1.1-0.9C55.2,84.7,54.5,85.9,53.6,86.6z M56.8,74.5c-0.2,0.3-0.4,0.6-0.7,0.9
	c-0.3,0.4-0.6,0.7-1,1c-1,0.9-2.1,1.6-3.3,2.3c-0.5-1.4-1.1-2.8-1.7-4.2c0.2,0.2,0.5,0.3,0.8,0.4c0.7,0.2,4.3-0.2,4.3-1.4
	c0,0.3-0.2,1.9-0.8,1.6C55.5,75.5,56.2,75.1,56.8,74.5z M51.4,58.6c0.6,1.1,0.3,2.5,1,3.4c0.3,0.4,1,0.8,1.3,0.4
	c0.2-0.3,0.1-0.6,0-0.8c0.3,0.6,0.9,1.5,2.1,1.9c1.7-0.4,0.7-2.5,0.4-3.7c0-0.1-0.1-0.1-0.1-0.2c0.5,0.5,0.9,1.1,1.3,1.8
	c1,1.9,1.7,6.1-0.4,7.5c-0.1,0.1-1.3,0.6-1.4,0.4c-0.1-0.1-0.2-0.2-0.2-0.3c-1.3,1.1,1.4,3.2,2.4,1.2c-1,2-3.8,3.6-5.7,1.4
	c-0.7-1.1-0.7-2.9,0.1-3.6c0.9-0.8,2-0.1,2.3,0.5c0,0,0-0.1,0-0.1l0,0c0.6-0.9-1.5-3.6-3.8-2c-1.3,1.3-1.3,3-0.7,4
	c-0.1-0.1-0.2-0.1-0.4-0.2c-0.6-0.2-1.1-0.1-1.4-0.1c0,0,0-0.1,0-0.1c0,0.2,0,0.4,0,0.5c-1.6-2.8-3.3-5.5-4.9-8
	c0.8-2.3,1.8-4.6,2.7-6.9c1.5,3.1,3,6.2,4.6,9.2c-1.5-3.1-2.9-6.1-4.3-9.2c0.5,0,1,0.1,1.6,0C49.3,56.2,50.8,57.2,51.4,58.6z
	 M46.4,11.7c-0.2-0.4-0.3-0.8-0.2-1.1c0.4,0.1,0.8,0.3,1.2,0.5c0,0.9,0.2,1.9,0.5,2.8C47.2,13.4,46.8,12.4,46.4,11.7z M50.1,16.3
	c-0.5-1.1-0.9-2.3-1.1-3.5c-0.1-0.3-0.1-0.6-0.1-0.9c0.7,0.7,1.4,1.5,1.8,2.6c0.8,1.9,1.4,3.9,1.6,5.9
	C51.5,19.1,50.7,17.7,50.1,16.3z M53.5,25c0.8,0.7,1.3,1.6,0.7,1.4c-0.2-0.2-0.5-0.4-0.8-0.7C53.4,25.5,53.5,25.2,53.5,25z
	 M54.8,34.9c0.3,0.3,0.7,0.6,1,1c0.3,0.3,0.5,0.6,0.7,0.9c-0.6-0.6-1.3-1-2.3-0.7c0.6-0.2,0.8,1.4,0.8,1.6c0-1.2-3.7-1.6-4.3-1.4
	c-0.2,0.1-0.5,0.2-0.7,0.3c0.6-1.3,1.2-2.7,1.7-4C52.8,33.3,53.8,34,54.8,34.9z M49.6,37.3c0,0.1,0.1,0.2,0.3,0.3
	c-0.2,0.1-0.4,0.1-0.5,0.2C49.5,37.7,49.5,37.5,49.6,37.3z M47.7,40.9c0,0.2,0,0.3,0,0.4c0,0,0-0.1,0-0.1c0.3,0.1,0.8,0.1,1.4,0
	c0.1-0.1,0.3-0.1,0.4-0.2c-0.5,1-0.6,2.7,0.7,4c2.3,1.5,4.4-1.1,3.8-2l0,0c0,0,0-0.1,0-0.1c-0.3,0.6-1.4,1.3-2.3,0.5
	c-0.8-0.7-0.8-2.5-0.1-3.6c1.9-2.2,4.7-0.6,5.7,1.4c-1-2-3.7,0.2-2.4,1.2c0.1-0.1,0.2-0.2,0.2-0.3c0.1-0.2,1.3,0.3,1.4,0.4
	c2.1,1.4,1.4,5.6,0.4,7.5c-0.3,0.7-0.8,1.3-1.3,1.8c0-0.1,0.1-0.1,0.1-0.2c0.3-1.2,1.3-3.3-0.4-3.7c-1.2,0.5-1.8,1.3-2.1,1.9
	c0.1-0.2,0.2-0.5,0-0.8c-0.4-0.4-1-0.1-1.3,0.4c-0.7,0.9-0.4,2.3-1,3.4c-0.6,1.4-2,2.5-3.5,2.9c-0.4,0-0.8,0-1.3,0.1
	c0-0.1-0.1-0.2-0.1-0.2c1.4-3.2,2.9-6.4,4.4-9.6c-1.6,3.1-3.1,6.1-4.6,9.2c-1-2.3-1.9-4.6-2.7-6.9C44.7,45.9,46.3,43.5,47.7,40.9z
	 M40.3,41.2c0.2,0.9,0.5,1.8,0.8,2.7c0.5,1.4,1,2.8,1.6,4.2c-1.4,2.1-2.9,4.2-4.3,6.2c-0.1,0.2-0.3,0.4-0.4,0.5
	c-1.3-1.9-2.6-3.8-3.8-5.7C36.3,46.6,38.5,44,40.3,41.2z M29.2,46.2c0.3-0.6,0.6-1.1,0.9-1.7c0.9,1.6,1.9,3.2,2.9,4.7
	c-1,1.3-2,2.6-3,3.9c-0.5,0.6-0.9,1.2-1.4,1.9c-1-1.4-2-2.7-2.9-4.1C27,49.3,28.1,47.7,29.2,46.2z M22.2,48.6
	c-0.6-1.9-2.5-3.1-1.8-5.3c0.2-0.6,0.5-1.1,1.1-1.3c0,0,0,0,0.1,0c0.7,3,2,5.9,3.6,8.6c-1.1,1.4-2.4,2.8-3.7,4
	c-0.3-0.8-1.2-1.8-2-1.5C21.2,52.7,22.7,50.4,22.2,48.6z M1.1,52.9c-0.5,0.7-0.9,1.4-1,2.2C0,54.3,0.4,53.5,1.1,52.9z M0.1,55.7
	c0.1,0.8,0.5,1.5,1,2.2C0.4,57.3,0,56.5,0.1,55.7z M4,59.7c-0.9-0.2-1.8-0.8-2.5-1.5c0.2,0.1,0.3,0.2,0.5,0.3
	c-0.2-0.1-0.4-0.2-0.5-0.3c-0.8-0.8-1.4-1.8-1.5-2.8c0.1-1,0.7-2,1.5-2.8c0.2-0.1,0.3-0.2,0.5-0.3c-0.2,0.1-0.4,0.2-0.5,0.3
	c0.7-0.7,1.6-1.2,2.5-1.5c2.3-1.2,4.9-1.2,7.4-0.7c-0.7,0.2-1.5,0.7-1.6,1.5c-0.1,0.9,0.7,1.4,1.5,1.5c-1.7-0.2-2.6,0.4-3.6,1.7
	c0.9,1.4,1.9,2,3.6,1.9c-0.8,0.1-1.6,0.5-1.6,1.4c0.1,0.8,0.9,1.4,1.6,1.6c0.9,0.3,1.9,0,2.7-0.3c0.4-0.2,1.4-0.8,2.1-0.8
	c-0.7,0.4-1.4,0.7-2.1,1C10.8,60.8,7.1,61.3,4,59.7z M22.2,68.4c-0.1,0.3-0.3,0.4-0.5,0.5c0-0.2,0.1-0.3,0.1-0.5
	C21.9,68.4,22,68.4,22.2,68.4z M22.2,66.8c-0.2,0.1-0.4,0.3-0.5,0.4c-0.1,0.2-0.2,0.8,0,1c-0.1,0.2-0.1,0.4-0.2,0.6
	c-0.3,0-0.5,0-0.8-0.1c-0.6-0.2-0.9-0.8-1-1.4c-0.6-2.2,1.4-3.4,2.1-5.2c0.3-0.9,0.1-1.9-0.4-2.8c-0.4-0.8-1.1-1.6-1.9-1.8
	c1,0.3,1.7-0.6,2-1.5c1.3,1.2,2.5,2.6,3.6,4C24,62.3,22.9,64.5,22.2,66.8z M29.2,64.6c-1.1-1.6-2.2-3.1-3.5-4.6
	c0.9-1.4,1.9-2.8,2.9-4.1c0.5,0.6,0.9,1.3,1.4,1.9c1,1.3,2,2.6,3,3.9c-1.1,1.5-2.1,3.1-2.9,4.7C29.8,65.7,29.5,65.2,29.2,64.6z
	 M29.2,75.3c-1.4-2-0.7-4.1,0.4-6c0.2-0.4,0.5-0.8,0.7-1.2c0.9,2.1,1.6,4.2,1.2,6.3C31.1,76.1,30.1,76.6,29.2,75.3z"/>
</symbol>

<symbol id="border_btn_right" viewBox="0 0 60.7 111.3">
<path class="st0" d="M28.6,36.7c-0.4,2.6,0.4,5,1.5,7.2c-1,1.7-2,3.3-3,4.9c-2.2-2.9-4.3-5.9-6.2-9c0.5-2.2,0.9-4.5,0.9-6.8
	c0.3-1.6-1.1-5.2-3.7-4c-2.2,1.4-1.9,3.9-1.5,5.8c0.9,2.1,2,4.1,3.3,6c-0.3,1.1-0.5,2.3-0.8,3.4c-0.4,1.3-0.9,2.5-1.3,3.8
	c-1.9-2.8-3.7-5.7-5.2-8.7c0-0.2-0.1-0.5-0.2-0.6c-0.1-0.1-0.2-0.2-0.3-0.3c-1-2-1.8-4.1-2.5-6.2c0.7-0.4,1.3-0.7,1.9-1.2
	c0.6-0.5,1.3-1.1,1.1-1.9c-0.1-0.8,0-1.5,0.4-2.1c0.4-0.6,1-1.1,1.7-1.4c0.3-0.1,1.7-0.8,2-0.5c-1.3-1.8-3.5-2.3-5.6-1.6
	c-1.1,0.4-2,0.9-2.8,1.4c0-0.2,0-0.5,0-0.7c1.7-0.9,3.5-2.2,5-3.9c1.4-1.4,2.2-3.3,2.3-5.2c0.1-0.8,0.1-1.6-0.1-2.4
	C15.4,12,15.3,11.5,15,11c0,0,0,0,0-0.1c4.2-0.9,9.3,1.6,11.1,5.8c3.2,5.9,3.2,14.1-1.5,19.3c4.7-5.2,4.9-13.4,1.8-19.5
	c-2.1-4.1-7.2-6.9-11.5-5.9c-0.1-0.1-0.2-0.3-0.3-0.4c-0.1-0.1-0.6-0.3-0.7-0.5c0.2,0.4,0.3,0.7,0.2,1.1c-0.4,0.1-0.8,0.3-1.2,0.6
	c0.1-1.8-0.3-3.6-0.8-5.4C11.9,4.9,11.3,4,10.6,3C9.4,1,7.3-0.9,5,0.5C4.4,0.8,4.3,2.1,5.1,2.3c1.5,0.3,0.5-2-0.2-0.9
	C4.9,0.6,6,0.1,6.7,0.2c0.6,0,1.4,0.5,1.9,0.9c2.3,1.8,2.8,4.9,3,7.7c0.1,1.4,0.2,2.7-0.1,4c-0.1,0.1-0.1,0.1-0.2,0.2
	c-2.4,2.7-3.5,5.6-3.9,8.7c-2,3.2-4.3,6.5-5.6,10.4c-1.6,3.6-2.1,7.7-1.5,11.6c0.3,1.8,0.8,3.6,1.6,5.2c1.8,3.9,5.5,6.3,9.7,6.8
	c-4,0.6-7.5,3-9.3,6.8c-0.8,1.6-1.3,3.4-1.6,5.2c-0.6,3.9-0.1,8,1.5,11.6C3.3,82.9,5.3,86,7.2,89c0.2,3.5,1.3,6.9,4,9.9
	c0.2,0.3,0.5,0.5,0.7,0.7c0.1,1,0,2,0,3c-0.1,2.8-0.6,5.9-3,7.7c-0.5,0.3-1.3,0.8-1.9,0.9c-0.6,0-1.8-0.5-1.7-1.2
	c0.7,1.2,1.6-1.2,0.2-0.9c-0.8,0.2-0.7,1.4-0.1,1.8c2.3,1.4,4.4-0.6,5.6-2.5c0.7-1,1.3-2,1.6-3.2c0.4-1.5,0.8-3.1,0.8-4.6
	c0.4,0.2,0.7,0.3,1.1,0.5c0,0.1-0.1,0.3-0.2,0.4c0-0.1,0.3-0.2,0.5-0.3c4.3,1.1,9.4-1.8,11.6-5.9c3.1-6.1,3-14.3-1.8-19.5
	c4.6,5.2,4.7,13.4,1.5,19.3c-1.7,4.2-6.9,6.7-11,5.8c0.2-0.2,0.3-0.4,0.4-0.6c0.3-0.5,0.4-1,0.5-1.6C16,98,16,97.1,16,96.3
	c-0.2-1.9-1-3.8-2.3-5.2c-1.6-1.8-3.5-3.1-5.2-4c-0.1,0-0.1,0-0.2-0.1c0-0.2,0-0.5,0-0.7c0.9,0.6,1.9,1.1,3.1,1.6
	c2.1,0.7,4.3,0.2,5.6-1.6c-0.3,0.3-1.7-0.4-2-0.5c-0.6-0.3-1.2-0.8-1.7-1.4c-0.5-0.7-0.5-1.4-0.4-2.2c0.1-0.8-0.6-1.4-1.1-1.9
	c-0.6-0.5-1.2-0.9-1.9-1.2c-0.1,0-0.1-0.1-0.2-0.1c0.7-2,1.5-4,2.4-5.9c0.2-0.1,0.3-0.3,0.4-0.5c0.1-0.3,0.2-0.6,0.3-0.9
	c1.4-2.7,3.1-5.4,4.8-8c0.5,1.3,0.9,2.5,1.3,3.8c0.3,1.1,0.6,2.2,0.8,3.4c-1.3,1.9-2.4,3.9-3.3,6c-0.4,1.9-0.8,4.4,1.5,5.8
	c2.7,1.2,4.1-2.4,3.7-4c0-2.3-0.4-4.6-0.9-6.8c1.9-3.1,4-6,6.2-9c1,1.6,2.1,3.3,3,4.9c-1.1,2.2-2,4.6-1.5,7.2c-0.2,2,3.1,3.8,3.9,1
	c1-2.4,0.1-5.4-1.5-8.6c0.4-0.7,0.7-1.4,1.1-2.1c1-1.5,2.1-3,3.2-4.5c1.6,2.6,3,5.4,3.7,8.3c-0.5,0.1-1.1,0-1.2-0.5
	c0.7,0.3,0.7-0.8,0.6-1.1c-0.2-0.4-0.7-0.7-1.1-0.7c-0.9,0-1.8,1.1-1.8,1.9c-0.1,1,1,1.9,1.9,2.2c0.7,0.3,1.4,0.2,2.1-0.2
	c0.2,0.9,0.3,1.8,0.3,2.7c0-0.9-0.1-1.8-0.3-2.7c1.4-0.8,2.3-2.8,1.3-4.1c0.4,0.3,0.8,0.4,0.9,1c0.1,0.4,0,1-0.4,1.3
	c1.1-0.3,2.1-0.9,2.2-2.3c0.1-1.4-0.8-2.2-1.9-2.9c1.3-0.4,3.4,1.5,2.6,2.8c1.3-0.9,2.5-2.5,1-3.8c0.5,0.4,1-0.2,1-0.7
	c0-0.5-0.3-1-0.7-1.2c-0.4-0.3-0.9-0.1-1.4-0.3c-0.5-0.2-0.8-0.8-0.2-1.2c0.1-0.1,0.3-0.1,0.5-0.1c0.7,0.4,1.4,0.7,2.2,1
	c0,0,0,0,0.1,0c0.5,0.2,1,0.4,1.6,0.5c2.8,0.7,5.9,0.8,8.5-0.6c1.1-0.3,2.1-1,2.8-1.9c0.9-0.7,1.2-1.6,1.1-2.6
	c0.1-0.9-0.2-1.9-1.1-2.6c-0.7-0.9-1.7-1.6-2.8-1.9c-3.1-1.7-6.9-1.2-10.1-0.1c-0.9,0.3-1.7,0.7-2.5,1.2c0,0,0,0,0,0
	c-0.6-0.4-0.3-1,0.3-1.2c0.4-0.1,1,0.1,1.4-0.2c0.4-0.2,0.7-0.7,0.7-1.2c0-0.5-0.5-1.1-1-0.7c1.7-1.2,0.6-2.8-0.7-3.9
	c0.7,1.4-1.5,3.2-2.8,2.7c1.1-0.6,2.1-1.3,2.1-2.7c-0.1-1.3-1-2-2.1-2.4c0.4,0.2,0.5,0.9,0.3,1.3c-0.2,0.5-0.6,0.6-1,0.9
	c1.2-1.5-0.1-4-1.9-4.5c0.1-0.8,0.2-1.6,0.2-2.3c-0.1,0.8-0.1,1.6-0.3,2.3c-0.4-0.1-0.9-0.1-1.3,0c-0.9,0.3-2,1.1-2,2.2
	c0,0.8,0.8,1.9,1.7,2c0.2,0,0.4,0,0.5-0.1c-0.8,2.2-1.8,4.2-3.1,6.2c-1.2-1.5-2.2-3-3.2-4.5c-0.4-0.7-0.7-1.4-1.1-2.1
	c1.6-3.1,2.5-6.2,1.5-8.6C31.7,33,28.4,34.8,28.6,36.7z M17.8,34.6c-2.2-4.1,3.2-6.9,3.1-1.5c0,1.9-0.2,3.9-0.6,5.8
	C19.4,37.6,18.6,36.1,17.8,34.6z M20.9,78.7c0.1,5.4-5.2,2.6-3.1-1.5c0.8-1.5,1.6-2.9,2.5-4.3C20.6,74.8,20.9,76.8,20.9,78.7z
	 M31.2,69.8c1.1,1.9,1.7,4.1,0.4,6c-0.9,1.3-1.9,0.9-2.2-0.9c-0.4-2.1,0.3-4.2,1.2-6.3C30.7,69,31,69.4,31.2,69.8z M19.7,44.5
	c0.3-0.9,0.5-1.8,0.8-2.7c1.9,2.7,4,5.3,6.1,7.9c-1.2,1.9-2.5,3.8-3.8,5.7c-0.1-0.2-0.3-0.4-0.4-0.5c-1.4-2-2.8-4.1-4.3-6.2
	C18.6,47.3,19.2,45.9,19.7,44.5z M39,56.1c0,0,0,0.1,0,0.1c-1.4,1.2-2.6,2.6-3.8,4c-0.9-1.5-1.9-2.9-2.9-4.3c1-1.4,2-2.8,2.9-4.3
	c1.2,1.4,2.4,2.8,3.8,4C39,55.8,39,55.9,39,56.1z M27.2,61.4c-1.5-2.1-3-4-4.1-5.5c1.1-1.5,2.6-3.4,4.1-5.5c1.5,1.8,3.1,3.6,4.5,5.5
	C30.3,57.8,28.7,59.6,27.2,61.4z M13.7,55.7c0.3,0,0.5-0.1,0.8-0.1c0,0,0,0.1,0,0.1C14.3,55.7,14,55.7,13.7,55.7z M15.1,55.6
	C15.1,55.6,15.1,55.6,15.1,55.6C15.1,55.6,15.1,55.6,15.1,55.6c1-2.1,1.9-4.2,2.8-6.4c1,1.4,1.9,2.8,2.7,4.1
	c0.6,0.9,1.2,1.8,1.8,2.6c-0.6,0.9-1.2,1.8-1.8,2.6c-0.8,1.2-1.8,2.6-2.7,4.1C17,60.4,16,58.1,15,55.9C15,55.8,15.1,55.7,15.1,55.6z
	 M11.1,37.9c-0.2-0.1-0.4-0.2-0.7-0.2c0.2-0.2,0.3-0.3,0.3-0.4C10.9,37.4,11,37.7,11.1,37.9z M14.1,11.2c0,0.2-0.1,0.3-0.2,0.5
	c-0.4,0.8-0.7,1.7-1.5,2.1c0.3-0.7,0.4-1.4,0.5-2.1C13.3,11.5,13.7,11.3,14.1,11.2z M10,15c0.3-0.8,0.8-1.5,1.3-2
	c-0.2,1.1-0.6,2.2-1.1,3.3c-0.5,1-1,2.1-1.6,3.1C9,17.9,9.4,16.5,10,15z M7.2,24.7c0,0.3,0,0.5,0.1,0.8c-0.4,0.3-0.8,0.6-1.1,0.9
	C5.5,26.6,6.2,25.5,7.2,24.7z M4,36.8c0.2-0.3,0.4-0.6,0.7-0.9c0.3-0.4,0.6-0.7,1-1c1-0.9,2.1-1.6,3.3-2.3c0.5,1.4,1.1,2.8,1.7,4.2
	c-0.2-0.2-0.5-0.3-0.8-0.4c-0.7-0.2-4.3,0.2-4.3,1.4c0-0.3,0.2-1.9,0.8-1.6C5.3,35.8,4.6,36.2,4,36.8z M9.4,52.7
	c-0.6-1.1-0.3-2.5-1-3.4c-0.3-0.4-1-0.8-1.3-0.4c-0.2,0.3-0.1,0.6,0,0.8c-0.3-0.6-0.9-1.5-2.1-1.9c-1.7,0.4-0.7,2.5-0.4,3.7
	c0,0.1,0.1,0.1,0.1,0.2c-0.5-0.5-0.9-1.1-1.3-1.8c-1-1.9-1.7-6.1,0.4-7.5C4,42.3,5.2,41.8,5.3,42c0.1,0.1,0.2,0.2,0.2,0.3
	c1.3-1.1-1.4-3.2-2.4-1.2c1-2,3.8-3.6,5.7-1.4c0.7,1.1,0.7,2.9-0.1,3.6c-0.9,0.8-2,0.1-2.3-0.5c0,0,0,0.1,0,0.1l0,0
	c-0.6,0.9,1.5,3.6,3.8,2c1.3-1.3,1.3-3,0.7-4c0.1,0.1,0.2,0.1,0.4,0.2c0.6,0.2,1.1,0.1,1.4,0.1c0,0,0,0.1,0,0.1c0-0.2,0-0.4,0-0.5
	c1.6,2.8,3.3,5.5,4.9,8c-0.8,2.3-1.8,4.6-2.7,6.9c-1.5-3.1-3-6.2-4.6-9.2c1.5,3.1,2.9,6.1,4.3,9.2c-0.5,0-1-0.1-1.6,0
	C11.4,55.2,10,54.1,9.4,52.7z M14.3,99.7c0.2,0.4,0.3,0.8,0.2,1.1c-0.4-0.1-0.8-0.3-1.2-0.5c0-0.9-0.2-1.9-0.5-2.8
	C13.6,98,13.9,98.9,14.3,99.7z M10.6,95c0.5,1.1,0.9,2.3,1.1,3.5c0.1,0.3,0.1,0.6,0.1,0.9c-0.7-0.7-1.4-1.5-1.8-2.6
	c-0.8-1.9-1.4-3.9-1.6-5.9C9.3,92.3,10,93.6,10.6,95z M7.2,86.4c-0.8-0.7-1.3-1.6-0.7-1.4c0.2,0.2,0.5,0.4,0.8,0.7
	C7.3,85.9,7.3,86.1,7.2,86.4z M5.9,76.4c-0.3-0.3-0.7-0.6-1-1c-0.3-0.3-0.5-0.6-0.7-0.9c0.6,0.6,1.3,1,2.3,0.7
	c-0.6,0.2-0.8-1.4-0.8-1.6c0,1.2,3.7,1.6,4.3,1.4c0.2-0.1,0.5-0.2,0.7-0.3c-0.6,1.3-1.2,2.7-1.7,4C8,78,6.9,77.3,5.9,76.4z M11.1,74
	c0-0.1-0.1-0.2-0.3-0.3c0.2-0.1,0.4-0.1,0.5-0.2C11.3,73.7,11.2,73.8,11.1,74z M13,70.5c0-0.2,0-0.3,0-0.4c0,0,0,0.1,0,0.1
	c-0.3-0.1-0.8-0.1-1.4,0c-0.1,0.1-0.3,0.1-0.4,0.2c0.5-1,0.6-2.7-0.7-4c-2.3-1.5-4.4,1.1-3.8,2l0,0c0,0,0,0.1,0,0.1
	c0.3-0.6,1.4-1.3,2.3-0.5c0.8,0.7,0.8,2.5,0.1,3.6c-1.9,2.2-4.7,0.6-5.7-1.4c1,2,3.7-0.2,2.4-1.2c-0.1,0.1-0.2,0.2-0.2,0.3
	c-0.1,0.2-1.3-0.3-1.4-0.4c-2.1-1.4-1.4-5.6-0.4-7.5c0.3-0.7,0.8-1.3,1.3-1.8c0,0.1-0.1,0.1-0.1,0.2c-0.3,1.2-1.3,3.3,0.4,3.7
	c1.2-0.5,1.8-1.3,2.1-1.9c-0.1,0.2-0.2,0.5,0,0.8c0.4,0.4,1,0.1,1.3-0.4c0.7-0.9,0.4-2.3,1-3.4c0.6-1.4,2-2.5,3.5-2.9
	c0.4,0,0.8,0,1.3-0.1c0,0.1,0.1,0.2,0.1,0.2c-1.4,3.2-2.9,6.4-4.4,9.6c1.6-3.1,3.1-6.1,4.6-9.2c1,2.3,1.9,4.6,2.7,6.9
	C16,65.4,14.5,67.9,13,70.5z M20.4,70.1c-0.2-0.9-0.5-1.8-0.8-2.7c-0.5-1.4-1-2.8-1.6-4.2c1.4-2.1,2.9-4.2,4.3-6.2
	c0.1-0.2,0.3-0.4,0.4-0.5c1.3,1.9,2.6,3.8,3.8,5.7C24.4,64.7,22.3,67.3,20.4,70.1z M31.5,65.2c-0.3,0.6-0.6,1.1-0.9,1.7
	c-0.9-1.6-1.9-3.2-2.9-4.7c1-1.3,2-2.6,3-3.9c0.5-0.6,0.9-1.2,1.4-1.9c1,1.4,2,2.7,2.9,4.1C33.8,62,32.6,63.6,31.5,65.2z M38.5,62.7
	c0.6,1.9,2.5,3.1,1.8,5.3c-0.2,0.6-0.5,1.1-1.1,1.3c0,0,0,0-0.1,0c-0.7-3-2-5.9-3.6-8.6c1.1-1.4,2.4-2.8,3.7-4
	c0.3,0.8,1.2,1.8,2,1.5C39.5,58.7,38,61,38.5,62.7z M59.6,58.4c0.5-0.7,0.9-1.4,1-2.2C60.7,57,60.4,57.8,59.6,58.4z M60.7,55.6
	c-0.1-0.8-0.5-1.5-1-2.2C60.4,54.1,60.7,54.8,60.7,55.6z M56.7,51.6c0.9,0.2,1.8,0.8,2.5,1.5c-0.2-0.1-0.3-0.2-0.5-0.3
	c0.2,0.1,0.4,0.2,0.5,0.3c0.8,0.8,1.4,1.8,1.5,2.8c-0.1,1-0.7,2-1.5,2.8c-0.2,0.1-0.3,0.2-0.5,0.3c0.2-0.1,0.4-0.2,0.5-0.3
	c-0.7,0.7-1.6,1.2-2.5,1.5c-2.3,1.2-4.9,1.2-7.4,0.7c0.7-0.2,1.5-0.7,1.6-1.5c0.1-0.9-0.7-1.4-1.5-1.5c1.7,0.2,2.6-0.4,3.6-1.7
	c-0.9-1.4-1.9-2-3.6-1.9c0.8-0.1,1.6-0.5,1.6-1.4c-0.1-0.8-0.9-1.4-1.6-1.6c-0.9-0.3-1.9,0-2.7,0.3c-0.4,0.2-1.4,0.8-2.1,0.8
	c0.7-0.4,1.4-0.7,2.1-1C49.9,50.5,53.6,50,56.7,51.6z M38.5,43c0.1-0.3,0.3-0.4,0.5-0.5c0,0.2-0.1,0.3-0.1,0.5
	C38.8,42.9,38.7,42.9,38.5,43z M38.6,44.6c0.2-0.1,0.4-0.3,0.5-0.4c0.1-0.2,0.2-0.8,0-1c0.1-0.2,0.1-0.4,0.2-0.6
	c0.3,0,0.5,0,0.8,0.1c0.6,0.2,0.9,0.8,1,1.4c0.6,2.2-1.4,3.4-2.1,5.2c-0.3,0.9-0.1,1.9,0.4,2.8c0.4,0.8,1.1,1.6,1.9,1.8
	c-1-0.3-1.7,0.6-2,1.5c-1.3-1.2-2.5-2.6-3.6-4C36.8,49.1,37.8,46.9,38.6,44.6z M31.5,46.7c1.1,1.6,2.2,3.1,3.5,4.6
	c-0.9,1.4-1.9,2.8-2.9,4.1c-0.5-0.6-0.9-1.3-1.4-1.9c-1-1.3-2-2.6-3-3.9c1.1-1.5,2.1-3.1,2.9-4.7C30.9,45.6,31.2,46.1,31.5,46.7z
	 M31.5,36.1c1.4,2,0.7,4.1-0.4,6c-0.2,0.4-0.5,0.8-0.7,1.2c-0.9-2.1-1.6-4.2-1.2-6.3C29.7,35.2,30.6,34.7,31.5,36.1z"/>
</symbol>

<symbol id="border_link_right" viewBox="0 0 36.6 48.8">
<g>
	<g>
		<path class="st0" d="M1.9,0.3c-2.3,0.9-1.8,5.4,0.7,5.7C2,6.1,1.7,6.3,1.2,6C0.8,5.8,0.4,5.3,0.5,4.8c-0.6,1.1-0.8,2.3,0.1,3.3
			c1,1.1,2.3,0.9,3.5,0.7c-0.6,1.3-3.6,1.5-4-0.1c-0.3,1.7,0,3.7,2.2,3.4c-0.7,0.1-0.6,0.9-0.2,1.3c0.3,0.4,0.9,0.5,1.4,0.4
			C4,13.7,4.2,13.2,4.7,13c0.5-0.2,1.2,0,1,0.7c-0.2,0.7-2,1.1-2.6,1.3c-0.8,0.3-1.8,0.8-2.3,1.6c-0.4,0.6-0.6,1.7-0.1,2.3
			c0.6,0.7,1.5,0.4,2.2,0c-1.3,1.2-1.6,2.3-1.4,4c1.7,0.3,2.8,0,3.9-1.3c-0.5,0.7-0.8,1.6-0.1,2.2C6,24.3,7,24.2,7.7,23.8
			c0.9-0.5,1.4-1.4,1.7-2.2c0.2-0.6,0.7-2.4,1.4-2.6c0.7-0.1,0.9,0.6,0.7,1c-0.2,0.4-0.7,0.7-0.9,1.2c-0.1,0.5,0,1.1,0.3,1.4
			c0.4,0.4,1.1,0.4,1.2-0.2c-0.2,1.1,0.4,1.8,1.1,2c-0.6,0.3-1,0.9-0.9,1.9c-0.1-0.6-0.9-0.5-1.2-0.2c-0.4,0.4-0.5,1-0.3,1.4
			c0.1,0.5,0.6,0.7,0.9,1.2c0.3,0.5,0,1.2-0.7,1c-0.7-0.1-1.1-2-1.4-2.6c-0.3-0.8-0.8-1.7-1.7-2.2c-0.7-0.4-1.7-0.6-2.3-0.1
			c-0.7,0.6-0.4,1.5,0.1,2.2c-1.2-1.3-2.3-1.5-3.9-1.3c-0.2,1.7,0,2.8,1.4,4c-0.7-0.5-1.6-0.8-2.2,0c-0.5,0.6-0.3,1.7,0.1,2.3
			c0.5,0.8,1.5,1.3,2.3,1.6c0.6,0.2,2.4,0.6,2.6,1.3c0.2,0.7-0.5,1-1,0.7c-0.4-0.2-0.7-0.7-1.2-0.9c-0.5-0.1-1.1,0-1.4,0.4
			c-0.4,0.4-0.4,1.2,0.2,1.3c-2.2-0.3-2.5,1.7-2.2,3.4c0.4-1.6,3.4-1.4,4-0.1c-1.2-0.3-2.6-0.5-3.5,0.7c-0.9,1.1-0.7,2.3-0.1,3.3
			c-0.1-0.4,0.3-1,0.7-1.2c0.5-0.3,0.8,0,1.4,0c-2.5,0.3-3,4.8-0.7,5.7C3,48.8,4.4,49,5.1,48.2c0.6-0.6,0.7-2.1,0.1-2.8
			c-0.3-0.3-0.9-0.5-1.4-0.3c-0.4,0.2-1.1,0.9-0.5,1.2c-0.5,0.4-1.1-0.2-1.3-0.7c-0.3-0.6-0.1-1.2,0.2-1.8c1.1-2.1,3.5-1.6,5.3-2.5
			C8.4,41,8.9,40,9.2,39.1c0.2-0.9,0.3-2-0.2-2.8c0.8,1.2,2.6,0.6,3.3-0.4c0.5-0.7,0.8-2.6-0.2-3.2c1.6,0.8,4.4,0.2,5.2-1.6
			c0.9-1.8,0.3-4.1,2.4-5.3c0.5-0.3,1.2-0.5,1.8-0.2c0.5,0.2,1.1,0.8,0.7,1.3c-0.3-0.7-1.1,0.1-1.2,0.5c-0.1,0.4,0,1,0.4,1.3
			c0.7,0.6,2.1,0.5,2.8-0.2c0.8-0.8,0.6-2.1,0.1-3c-0.3-0.8-1.1-1.2-1.9-1.3c0.7-0.2,1.3-0.6,1.6-1.3c0.4-0.9,0.6-2.3-0.1-3
			c-0.6-0.6-2-0.8-2.7-0.2c-0.4,0.3-0.5,0.9-0.4,1.3c0.1,0.4,0.9,1.1,1.2,0.5c0.3,0.5-0.2,1.1-0.7,1.3c-0.6,0.3-1.2,0.1-1.8-0.2
			c-2.1-1.2-1.5-3.5-2.4-5.3c-0.8-1.7-3.6-2.4-5.2-1.6c1-0.5,0.7-2.5,0.2-3.2c-0.7-0.9-2.6-1.6-3.3-0.4c0.5-0.8,0.4-1.9,0.2-2.8
			c-0.2-1-0.8-1.9-1.7-2.4C5.5,6.4,3.1,7,2,4.8C1.7,4.3,1.5,3.7,1.9,3.1c0.2-0.4,0.8-1,1.3-0.7C2.5,2.7,3.2,3.5,3.7,3.6
			c0.4,0.1,1,0,1.4-0.3c0.6-0.7,0.5-2.1-0.1-2.8C4.1-0.2,2.8-0.1,1.9,0.3z M20.7,24.4c-1.1,0.3-2.1,1-2.2,2.1c0-0.5-0.3-0.9,0-1.4
			c0.2-0.4,0.7-0.8,1.2-0.7c-0.1,0-0.2-0.1-0.2-0.1c0,0,0,0,0,0c0,0,0,0,0,0c-0.3-0.1-0.5-0.2-0.8-0.3c-0.1-0.1-0.3-0.3-0.4-0.4
			c-0.3-0.5,0-0.9,0-1.4C18.4,23.4,19.5,24.2,20.7,24.4z M16.1,24.2c0.2,0.1,0.3,0.2,0.5,0.3c-0.1,0.1-0.2,0.1-0.2,0.2
			c-1.1,1-0.9,2.3-0.6,3.5c-1-0.5-1.4-2.5-0.7-3.5c0.2,0,0.3,0,0.4,0c-0.1,0-0.2-0.1-0.3-0.2c0.1-0.1,0.3-0.3,0.5-0.3
			c-0.3,0-0.6-0.1-0.9,0c-0.7-1-0.3-3,0.7-3.5C15.2,21.9,15,23.2,16.1,24.2z"/>
	</g>
	<g>
		<path class="st0" d="M26.1,22.4c1.1,0,2,0.9,2,2c0,1.1-0.9,2-2,2c-1.1,0-2-0.9-2-2C24.2,23.2,25,22.4,26.1,22.4z"/>
		<path class="st0" d="M31.4,23c-0.8,0.2-1.5,0.6-2.3,1c-0.1,0-0.7,0.3-0.7,0.4v0c0.3,0.1,0.5,0.3,0.8,0.4c0.5,0.2,0.9,0.5,1.4,0.6
			c0.7,0.3,1.4,0.4,2.1,0.6c1.1,0.2,2.3,0.1,3.3-0.6c0.3-0.2,0.5-0.5,0.6-0.9c0,0,0,0,0-0.1c0,0,0,0,0-0.1c-0.1-0.4-0.3-0.7-0.6-0.9
			c-0.3-0.2-0.6-0.4-1-0.5c-0.3-0.1-0.6-0.1-0.8-0.2c-0.2,0-0.4,0-0.6,0c-0.3,0-0.7,0-1,0.1C32.2,22.8,31.8,22.9,31.4,23z"/>
	</g>
</g>
</symbol>

<symbol id="border_link_left" viewBox="0 0 36.6 48.8">
<g>
	<g>
		<path class="st0" d="M34.8,48.5c2.3-0.9,1.8-5.4-0.7-5.7c0.5,0,0.9-0.3,1.4,0c0.4,0.2,0.8,0.8,0.7,1.2c0.6-1.1,0.8-2.3-0.1-3.3
			c-1-1.1-2.3-0.9-3.5-0.7c0.6-1.3,3.6-1.5,4,0.1c0.3-1.7,0-3.7-2.2-3.4c0.7-0.1,0.6-0.9,0.2-1.3c-0.3-0.4-0.9-0.5-1.4-0.4
			c-0.5,0.1-0.8,0.6-1.2,0.9c-0.5,0.2-1.2,0-1-0.7c0.2-0.7,2-1.1,2.6-1.3c0.8-0.3,1.8-0.8,2.3-1.6c0.4-0.6,0.6-1.7,0.1-2.3
			c-0.6-0.7-1.5-0.4-2.2,0c1.3-1.2,1.6-2.3,1.4-4c-1.7-0.3-2.8,0-3.9,1.3c0.5-0.7,0.8-1.6,0.1-2.2c-0.6-0.5-1.7-0.3-2.3,0.1
			c-0.9,0.5-1.4,1.4-1.7,2.2c-0.2,0.6-0.7,2.4-1.4,2.6c-0.7,0.1-0.9-0.6-0.7-1c0.2-0.4,0.7-0.7,0.9-1.2c0.1-0.5,0-1.1-0.3-1.4
			c-0.4-0.4-1.1-0.4-1.2,0.2c0.2-1.1-0.4-1.8-1.1-2c0.6-0.3,1-0.9,0.9-1.9c0.1,0.6,0.9,0.5,1.2,0.2c0.4-0.4,0.5-1,0.3-1.4
			c-0.1-0.5-0.6-0.7-0.9-1.2c-0.3-0.5,0-1.2,0.7-1c0.7,0.1,1.1,2,1.4,2.6c0.3,0.8,0.8,1.7,1.7,2.2c0.7,0.4,1.7,0.6,2.3,0.1
			c0.7-0.6,0.4-1.5-0.1-2.2c1.2,1.3,2.3,1.5,3.9,1.3c0.2-1.7,0-2.8-1.4-4c0.7,0.5,1.6,0.8,2.2,0c0.5-0.6,0.3-1.7-0.1-2.3
			c-0.5-0.8-1.5-1.3-2.3-1.6c-0.6-0.2-2.4-0.6-2.6-1.3c-0.2-0.7,0.5-1,1-0.7c0.4,0.2,0.7,0.7,1.2,0.9c0.5,0.1,1.1,0,1.4-0.4
			c0.4-0.4,0.4-1.2-0.2-1.3c2.2,0.3,2.5-1.7,2.2-3.4c-0.4,1.6-3.4,1.4-4,0.1c1.2,0.3,2.6,0.5,3.5-0.7c0.9-1.1,0.7-2.3,0.1-3.3
			c0.1,0.4-0.3,1-0.7,1.2c-0.5,0.3-0.8,0-1.4,0c2.5-0.3,3-4.8,0.7-5.7c-0.9-0.4-2.3-0.5-3.1,0.2c-0.6,0.6-0.7,2.1-0.1,2.8
			c0.3,0.3,0.9,0.5,1.4,0.3c0.4-0.2,1.1-0.9,0.5-1.2c0.5-0.4,1.1,0.2,1.3,0.7c0.3,0.6,0.1,1.2-0.2,1.8c-1.1,2.1-3.5,1.6-5.3,2.5
			c-0.9,0.5-1.4,1.4-1.7,2.4c-0.2,0.9-0.3,2,0.2,2.8c-0.8-1.2-2.6-0.6-3.3,0.4c-0.5,0.7-0.8,2.6,0.2,3.2c-1.6-0.8-4.4-0.2-5.2,1.6
			c-0.9,1.8-0.2,4.1-2.4,5.3c-0.5,0.3-1.2,0.5-1.7,0.2c-0.5-0.2-1.1-0.8-0.7-1.3c0.3,0.7,1.1-0.1,1.2-0.5c0.1-0.4,0-1-0.4-1.3
			c-0.7-0.6-2.1-0.5-2.8,0.2c-0.8,0.8-0.6,2.1-0.1,3c0.3,0.8,1.1,1.2,1.9,1.3c-0.7,0.2-1.3,0.6-1.6,1.3c-0.4,0.9-0.6,2.3,0.1,3
			c0.6,0.6,2,0.8,2.7,0.2c0.4-0.3,0.5-0.9,0.4-1.3c-0.1-0.4-0.9-1.1-1.2-0.5c-0.3-0.5,0.2-1.1,0.7-1.3c0.6-0.3,1.2-0.1,1.8,0.2
			c2.1,1.2,1.5,3.5,2.4,5.3c0.8,1.7,3.6,2.4,5.2,1.6c-1,0.5-0.7,2.5-0.2,3.2c0.7,0.9,2.6,1.6,3.3,0.4c-0.5,0.8-0.4,1.9-0.2,2.8
			c0.2,1,0.8,1.9,1.7,2.4c1.8,0.9,4.1,0.3,5.3,2.5c0.3,0.6,0.5,1.2,0.2,1.8c-0.2,0.4-0.8,1-1.3,0.7c0.7-0.3-0.1-1.1-0.5-1.2
			c-0.4-0.1-1,0-1.4,0.3c-0.6,0.7-0.5,2.1,0.1,2.8C32.5,49,33.9,48.8,34.8,48.5z M15.9,24.4c1.1-0.3,2.1-1,2.2-2.1
			c0,0.5,0.3,0.9,0,1.4c-0.2,0.4-0.7,0.8-1.2,0.7c0.1,0,0.2,0.1,0.2,0.1c0,0,0,0,0,0c0,0,0,0,0,0c0.3,0.1,0.5,0.2,0.8,0.3
			c0.1,0.1,0.3,0.3,0.4,0.4c0.3,0.5,0,0.9,0,1.4C18.3,25.3,17.2,24.6,15.9,24.4z M20.5,24.6c-0.2-0.1-0.3-0.2-0.5-0.3
			c0.1-0.1,0.2-0.1,0.2-0.2c1.1-1,0.9-2.3,0.6-3.5c1,0.5,1.4,2.5,0.7,3.5c-0.2,0-0.3,0-0.4,0c0.1,0,0.2,0.1,0.3,0.2
			c-0.1,0.1-0.3,0.3-0.5,0.3c0.3,0,0.6,0.1,0.9,0c0.7,1,0.3,3-0.7,3.5C21.4,26.9,21.6,25.6,20.5,24.6z"/>
	</g>
	<g>
		<path class="st0" d="M10.5,26.4c-1.1,0-2-0.9-2-2c0-1.1,0.9-2,2-2c1.1,0,2,0.9,2,2C12.5,25.5,11.6,26.4,10.5,26.4z"/>
		<path class="st0" d="M5.3,25.8c0.8-0.2,1.5-0.6,2.3-1c0.1,0,0.7-0.3,0.7-0.4v0C8,24.3,7.7,24.1,7.4,24C7,23.8,6.5,23.5,6,23.4
			c-0.7-0.3-1.4-0.4-2.1-0.6c-1.1-0.2-2.3-0.1-3.3,0.6C0.3,23.6,0.1,24,0,24.4c0,0,0,0,0,0.1c0,0,0,0,0,0.1c0.1,0.4,0.3,0.7,0.6,0.9
			c0.3,0.2,0.6,0.4,1,0.5c0.3,0.1,0.6,0.1,0.8,0.2c0.2,0,0.4,0,0.6,0c0.3,0,0.7,0,1-0.1C4.5,26,4.9,25.9,5.3,25.8z"/>
	</g>
</g>
</symbol>

<symbol id="feature__title" viewBox="0 0 263.4 56.8">
	<text transform="matrix(1 0 0 1 0 24.8184)" class="st0 st1">Cookie</text>
	<text transform="matrix(1 0 0 1 122.7274 39.5908)" class="st2 st1">&amp;</text>
	<text transform="matrix(1 0 0 1 146.5911 54.3634)" class="st0 st1">Bread</text>
</symbol>


<symbol id="border_1" viewBox="0 0 907.9 21.2">
	<linearGradient id="SVGID_1_" gradientUnits="userSpaceOnUse" x1="0" y1="10.6022" x2="907.852" y2="10.6022">
	<stop  offset="0" style="stop-color:#36394C"/>
	<stop  offset="1" style="stop-color:#637C88"/>
	</linearGradient>
	<path class="st0" d="M0,16.8c2.8,0,422.9,0,425.7,0c1.8-0.4,3.2-1.3,4.4-2.3c0.8-1.4,1.5-3.2,1-5.1c-0.8-1.7-2.2-2.8-4.9-2.6
		c-0.8,0.8,0.9,0.8,1.5,1c0.3,0.6,1,0.9,1,1.8c0.2,1.7-0.9,2.2-1.5,3.1c-3.1,0.9-5.9-0.3-6.9-2.3c-1.9-6.6,5.2-9.7,10.3-6.9
		c1.4,1.2,2.3,3.1,2.8,5.1c0.2-3.7,1.2-6.6,4.9-6.7c1,0,0.1,0.2,0.3,0.8c-0.2,0.2-0.4,0.5-0.5,0.8c0.1,0.7-0.7,1.8,0,2.3
		c-0.7,0.7-1.8,1.1-1.8,2.6c-0.1,1.8,0.8,2.6,1.8,3.3c-0.2,0.7-0.5,2.2,0,2.8c2,4.1,9.3,1.7,11.8-0.3c0.9,0.3,1.6,0.9,2.1,1.5
		c-3.4,3.3-11.5,4.2-17.5,2.6c-0.4-1,0.9-2.3,0.8-3.9c0-2.1-1.1-2.8-2.3-2.6c-2.2,0.3-1.9,3.7-1,5.4c0.3,0.7,1.6,1.1,1,1.8
		c-1.7,1.9-4.9,1.5-8.2,1.5c-2.4,0-422.4,0-424.7,0v0.5c4.2,0,425.9,0,430.1,0c1.8-0.2,2.5-1.4,3.9-2.1c3.3,2.4,10.8,2.2,14.7,0.5
		c1.9-0.8,3.4-2,5.1-2.8c2.4,2,5.3,3.4,9,4.1c2,0.1,3.7,0,5.4-0.3c1.5-0.4,3.2-0.5,4.1-1.5c1.3,0.6,2,1.7,3.6,2.1
		c4.5,0,427.5,0,432,0v-0.5c-2.5,0-423.6,0-426.1,0c-3.4,0-6.7,0.4-8.5-1.5c0.5-1.4,1.9-2.1,1.8-4.1c0.2-2-0.4-3.4-2.6-3.1
		c-2.2,0.8-1.1,4.7-0.5,6.4c-2.9,0.6-6.1,1-9.3,0.8c-3.4-0.3-6.2-1.6-8.5-2.6c0.6-1.2,2.2-1.4,2.8-2.6c2.2,1.3,3.9,3.1,7.2,3.3
		c2.2-0.2,3.6-1.2,4.4-2.8c0-1,0.2-2.3-0.5-2.6c0.9-0.7,2.1-1.9,2.1-3.3c0-1.4-0.9-2-1.8-2.8c0.2-1.8-0.4-2.7-0.8-3.9
		c3.7,0.2,5.4,2.5,5.1,6.7c0.9,0.3,0.4-0.8,0.5-1.3c0.3-0.3,0.3-0.9,0.5-1.3c0.3-0.9,1-1.2,1.3-2.1c1.5-0.7,2.8-1.7,5.1-1.5
		c2.6,0.1,4,1.4,5.4,2.8c1.5,2.9,0.5,6.7-2.6,7.7c-2.8,0.2-5.2-0.1-5.4-2.6c-0.2-1.2,0.4-1.7,0.8-2.3c0.2-0.8,1.8-0.1,1.8-1
		c-1.5-0.8-3.2,0.3-4.1,0.8c-0.3,0.8-0.9,1.5-1,2.3c-0.4,3.3,2.1,6,4.9,6.7c3.2,0,424.7,0,427.9,0v-0.5c-3,0-424.4,0-427.4,0
		c-1.3-0.3-2.4-0.9-3.3-1.5c-0.6-1.1-1.7-2.7-1.5-4.4c0.2-1.4,1-2.4,2.3-2.8c-0.7,0.9-0.9,2.2-0.8,3.9c0.8,1.6,1.7,2.9,3.6,3.3
		c0.6,0,1.2,0,1.8,0c2.8-1.1,4.4-3.4,4.4-7.5C486.5,6.1,486,5,485.4,4c-1.1-0.5-2.1-1.8-3.9-2.1c-2.1-0.4-4.3,0.3-5.9,1
		c-0.2,0.7-1.2,0.5-1.3,1.3c-0.6,0.3-0.4,1.3-1.3,1.3c-0.1-1.4-0.9-2.2-1.5-3.1c-1.4-0.5-2.5-1.3-4.6-1c-0.8-0.6-1.7-1.1-2.8-1.3
		c-1.5,0-2.9,0-4.4,0c-2.6,1.1-4.5,2.8-6.4,4.6c-2.7-2.6-5.3-5.4-11.3-4.6c-0.9,0.5-2.1,0.8-2.8,1.5c-1.2-0.5-2.5-0.1-3.3,0.3
		c-1.5,0.7-2.1,2.6-2.8,3.9c-0.4-1.2-1.4-2.5-2.6-3.1c-3-1.6-7.9-0.8-9.8,1.8c-0.6,0.8-0.4,1.6-1,2.3c-0.3,3.5,0.9,5.5,2.3,7.2
		c0.7,0.1,1.2,0.4,1.5,0.8c1.9,0.2,3.3-0.1,4.4-0.8c0.7-0.9,1.3-2,1.5-3.3c0.1-0.9-0.1-1.4-0.3-2.1c0.1-0.5-1.2-0.8-0.5-1
		c1,0.4,1.7,1.1,2.1,2.1c0.3,2.6-0.6,3.8-1.5,5.1c-1,0.3-1.6,0.9-2.6,1.3C423.7,16.4,3.2,16.4,0,16.3V16.8z M431.9,13.2
		c0.6-0.1,0.5-1,1.5-0.8c2.2,0.6,1,4.1,0.3,5.4C432.2,17.2,431.6,15.6,431.9,13.2z M472.8,12.5c3.1,0,1.8,5.3-0.3,5.4
		C472,16.6,470.9,13.1,472.8,12.5z M439.4,2.2c1.4,0.3,1.9,1.5,2.6,2.6c0,0.3-0.1,0.5-0.3,0.5c-1.3-0.2-2,0.2-3.1,0.3
		C438.4,4,438.8,3,439.4,2.2z M441.9,5.8c0.3,2.1-3.2,2.4-3.1,0.3C439.9,6,440.6,5.6,441.9,5.8z M436.8,9.4c-0.4-1.1,0.4-2.1,1-2.8
		c1,0.8,1.1,2.5,2.6,2.8c1.6-0.3,2-1.8,2.1-3.6c2.6,0.1,4.3,1,6.2,1.8c-0.6,1.5-2.5,1.6-3.6,2.6c-2.6-0.8-4.1,0.5-6.7,0.5
		C437.9,10.1,437.1,10.2,436.8,9.4z M453.5,6c0.9,0.5,1.3,1.5,2.3,1.8c-0.8,1-1.8,1.8-3.1,2.3c-0.6-0.6-1.3-1.1-2.1-1.5
		C451.4,7.6,452.9,7.2,453.5,6z M441.7,10.9c-1.3-0.1,0.2-0.4,0.8-0.3c0.2-0.1,0.4-0.3,0.8-0.3C443.2,11.1,442.3,10.9,441.7,10.9z
		M446.8,10.9c1.2-0.5,2.2-1.2,3.1-2.1c1.2,0.2,1.4,1.3,2.6,1.5c-1,0.8-2.1,1.5-3.1,2.3c-0.8,0-1-0.5-1.5-0.8
		C447.5,11.6,446.8,11.6,446.8,10.9z M440.4,15.3c-1.1-0.6-2.1-1.1-1.8-3.1c2.2,0.9,5.7,0.5,7.2-0.8c1.1,0.4,1.7,1.2,2.8,1.5
		C446.6,14.4,444.2,15.6,440.4,15.3z M453,15.3c-1.1-0.1-1.5-0.9-2.3-1.3c0.6-1.2,2.2-1.4,2.8-2.6c0.9,0.4,1.4,1.2,2.3,1.5
		C455.1,14,454,14.5,453,15.3z M467.4,12.2c0.3,0,0.5,0.1,0.5,0.3c0.4,0.3,0.3,1.1,0.3,1.8c-2.5,2.4-7.9,0.9-10.3-0.5
		c0.8-0.9,2-1.4,2.8-2.3C462.3,12.1,465.1,13,467.4,12.2z M456.6,12.7c-1.1-0.1-1.2-1.2-2.3-1.3c0.4-1.3,2.1-1.4,2.6-2.6
		c1.3,0.4,1.8,1.5,3.1,1.8C458.9,11.4,457.6,12,456.6,12.7z M464.3,10.9c-0.4,0-0.9,0-1.3,0c-0.5-0.2,0.2-0.3,0.5-0.3
		c0.4,0,0.9,0,1.3,0C465.3,10.9,464.7,10.9,464.3,10.9z M467.6,10.7c-2.3-0.4-4.4-1.1-6.7-0.3c-1.2-0.5-2.1-1.3-3.3-1.8
		c1.7-1.4,3.4-2.7,6.4-2.8c-0.1,1.8,0.5,2.9,1.5,3.6c1.5-0.3,2.4-1.2,2.6-2.8C470.2,7.3,469.9,10.4,467.6,10.7z M467.6,6.3
		c-0.2,1.9-3.6,1.5-3.1-0.8C465.5,5.8,466.9,5.8,467.6,6.3z M467.9,5.8c-1-0.4-1.9-0.8-3.3-0.8c0.1-1.5,1.2-2.1,2.1-2.8
		C467.6,2.8,468,4,467.9,5.8z M463.8,0.6c1,0.1,1.6,0.6,2.6,1c-1.1,0.8-2.3,1.5-2.3,3.3c-3.1,0.2-5.6,1.1-7.5,2.6
		c-1.1-0.3-1.5-1.4-2.6-1.8C456.1,3.3,459-0.1,463.8,0.6z M445.8,0.6c3.2,0.6,4.9,2.6,6.9,4.4c-0.7,1.1-2,1.6-3.1,2.3
		c-2.5-0.6-4-2.2-7.2-2.1c-0.2-1.7-1-2.8-2.3-3.3C441,0.5,443.4,0.6,445.8,0.6z"/>
</symbol>

<symbol id="logo" viewBox="0 0 308.3 140.9">
	<g>
	<g>
		<path class="logo__0" d="M17.4,121.5c0-0.8,3-0.2,3,0.9c-0.1,2.7,3.1,3.9,3.9,3.3v0c2.6-2.3-10.8-11.3-19-3.5
			c-4.4,4.2-2.7,16.1,9.8,16.9c2.4,0.1,4.8,0,7.1-0.3c1.3,0.4,2.7,0.6,4.1,0.8c-3.9,1.1-7.8,1.6-11.8,1.3
			c-15.3-0.9-17.5-14-11.2-19.6c9.2-8.2,24.8,0.6,22.5,4.7c-0.1,0.2-0.3,0.4-0.5,0.6l0,0C23.4,128.2,17.3,125.2,17.4,121.5
			L17.4,121.5z M31.7,136c10.9-4.4,21.3-13,31.5-21.4c1.1-0.9,2.1-1.8,3.2-2.6c0,0.6-0.1,1.3-0.2,1.9c-0.7,0.6-1.4,1.1-2.1,1.7
			c-9.1,7.5-18.5,15.3-28.3,20.2C34.5,136,33.1,136,31.7,136L31.7,136z M70.2,108.9c4.2-3.4,8.5-6.6,13-9.2c0.8,0.7,1.3,1.7,1.5,2.7
			c-4.7,2.4-9.6,5.3-14.2,8.5C70.5,110.1,70.4,109.5,70.2,108.9L70.2,108.9z M87.1,97.7c5.1-2.4,10.7-3.9,17.2-4.1
			c10-0.3,19.5,3,27.9,8.9c1.1,0.8,2.2,1.6,3.2,2.5c-0.2,1-0.5,2-0.9,3c-1-0.8-2-1.6-3.1-2.4c-13-9.2-28.7-11.4-43-5
			C88.1,99.5,87.7,98.5,87.1,97.7L87.1,97.7z M138.8,108c4.1,4.2,7.5,9,10.3,14.1c-0.4,0.4-0.8,0.8-1.3,1.2
			c-2.8-4.6-6.1-8.9-10.1-12.7C138.1,109.8,138.5,109,138.8,108L138.8,108z M150.9,125.6c1.2,2.4,2.3,4.9,3.3,7.4v3.8
			c-1.3-3.5-2.8-6.9-4.5-10.1C150.1,126.3,150.5,125.9,150.9,125.6z"/>
		<path class="logo__0" d="M154.2,108.5c-1.8,3.3-3.8,6.5-6.1,9.4c-0.5-0.9-1.1-1.7-1.7-2.5c3-4.1,5.6-8.6,7.7-13.1V108.5L154.2,108.5z
			M145.1,121.5c-10.2,11.4-24.3,18.8-41.3,18.8c-11.9,0-24.2-3.3-33.7-9.2c0.6-0.4,1.1-0.9,1.6-1.4c9.1,5.8,20.6,9.3,32,9.3
			c16.1,0,29.8-8.2,39.6-19.8C144,119.9,144.5,120.7,145.1,121.5L145.1,121.5z M66.5,128.5c0.6-0.4,1.2-0.9,1.8-1.3
			c-1.4-1.1-2.7-2.2-4-3.4c3.2-4.2,8-14.3,2.1-18c-6.6-4.2-15.5,1.6-9.5,12.3c0.6-0.5,1.2-1,1.8-1.5c-0.5-1-0.9-2-1.1-2.9
			c-1.5-6.2,4.3-8.1,7.8-5.9c5,3.1,0.4,11.7-2.1,15.1c-0.9-1-1.8-2-2.5-2.9c-0.6,0.5-1.1,0.9-1.7,1.4c0.8,1,1.8,2.1,2.9,3.2
			c-3.3,4.1-10,8.3-16.5,10.4c-7.4,2.3-15.7,3.4-22.6,1c-4.6-1.6-10.8-6.2-12.9-11.2c-2,1.5-3.6,7.2,11.1,12.3
			c8,2.8,18.3,1.4,24.7-0.7c6-2,12.9-5.5,17.2-10.8C64.1,126.6,65.3,127.6,66.5,128.5z"/>
		<path class="logo__0" d="M53.5,136.1c9.7-2.6,18.2-8.8,24.7-16.5c0.3,0.3,0.6,0.6,0.9,0.9C72,128.6,60.4,138.6,53.5,136.1L53.5,136.1z
			M79.1,118.6c0.3,0.3,0.6,0.6,0.9,0.9c6.2,6.1,15.8,9.3,24.7,9.3c8.8,0,17.8-3.5,24.4-9.4c-0.3-0.3-0.6-0.7-0.9-1
			c-6.4,5.7-15.1,8.8-23.6,8.8c-8.6,0-17.3-3.7-23.2-9.6c-0.3-0.3-0.6-0.6-0.9-1c-2.2-2.4-3.7-5.1-4.6-8c-0.8,0.5-1.7,1.1-2.5,1.6
			C74.9,113.4,77,116.3,79.1,118.6L79.1,118.6z M72,105.8c-0.1-0.6-0.2-1.2-0.2-1.7c-0.8-11.2,15.7-12.1,15.7-0.4
			c0,4.7-2.3,9.1-5.2,13c-0.3-0.3-0.6-0.6-0.9-1c2.7-3.7,4.7-7.8,4.8-12.1c0.1-8.5-11.7-8.3-11.2-0.1C74,104.3,73,105,72,105.8
			L72,105.8z M129.3,117.5c-3.2-3.9-6.6-9.2-6.8-14.4c0-0.4,0-0.8,0-1.2c1.1,0.5,2.2,1,3.2,1.6l0,0.1c0.2,4.8,2,8.8,5,12.5
			c0.3,0.3,0.6,0.7,0.9,1c1.8,2.1,3.9,4.2,6,6.2c-0.4,0.4-0.8,0.7-1.2,1.1c-2.3-2.2-4.6-4.3-6.2-6
			C129.9,118.2,129.6,117.9,129.3,117.5L129.3,117.5z M141.2,127.2c2.2,2.5,4.4,5.2,5,8.5c0.4,2.1-0.8,4.5-3.2,4.5
			c-2.1,0-3.3-1.7-3-3.8c0.2-1.1,1-2.5,1.9-3.9c0.3,0.4,0.5,0.8,0.8,1.3c-0.7,1.2-0.8,2-0.8,2.8c0,1.3,0.8,1.8,1.6,1.9
			c1.2,0,1.6-0.8,1.5-1.8c-0.1-2.1-3.6-6.7-5.1-8.3C140.4,127.9,140.8,127.6,141.2,127.2L141.2,127.2z M144.2,129.1
			c0.3,0.4,0.5,0.7,0.8,1.1c2.6-3.4,6.1-6.6,9.1-8.3v-2.4C151.1,121.4,147,125.6,144.2,129.1L144.2,129.1z M125.1,96.8
			c4.7-3.9,14.1-1.4,13.1,7.5c-0.5,4.4-2.6,8.5-5.8,12c-0.3-0.3-0.6-0.7-0.8-1c2.9-3.3,4.8-7.1,5.3-11.1c0.7-6.1-5.3-8.1-8.8-5.8
			C127.1,97.8,126.1,97.2,125.1,96.8z"/>
		<path class="logo__0" d="M290.9,121.5c0-0.8-3-0.2-3,0.9c0.1,2.7-3.1,3.9-3.9,3.3v0c-2.6-2.3,10.8-11.3,19-3.5
			c4.4,4.2,2.7,16.1-9.8,16.9c-2.4,0.1-4.8,0-7.1-0.3c-1.3,0.4-2.7,0.6-4,0.8c3.9,1.1,7.8,1.6,11.8,1.3c15.3-0.9,17.4-14,11.2-19.6
			c-9.2-8.2-24.8,0.6-22.5,4.7c0.1,0.2,0.3,0.4,0.5,0.6h0C284.9,128.2,291.1,125.2,290.9,121.5L290.9,121.5z M276.6,136
			c-10.9-4.4-21.3-13-31.5-21.4c-1.1-0.9-2.1-1.8-3.2-2.6c0,0.6,0.1,1.3,0.2,1.9c0.7,0.6,1.4,1.1,2.1,1.7
			c9.1,7.5,18.5,15.3,28.3,20.2C273.8,136,275.2,136,276.6,136L276.6,136z M238.1,108.9c-4.2-3.4-8.5-6.6-13-9.2
			c-0.8,0.7-1.3,1.7-1.4,2.7c4.7,2.4,9.6,5.3,14.2,8.5C237.8,110.1,237.9,109.5,238.1,108.9L238.1,108.9z M221.2,97.7
			c-5.1-2.4-10.7-3.9-17.2-4.1c-10-0.3-19.5,3-27.9,8.9c-1.1,0.8-2.2,1.6-3.2,2.5c0.2,1,0.5,2,0.9,3c1-0.8,2.1-1.6,3.1-2.4
			c13-9.2,28.7-11.4,43-5C220.2,99.5,220.6,98.5,221.2,97.7L221.2,97.7z M169.5,108c-4.1,4.2-7.5,9-10.3,14.1
			c0.4,0.4,0.8,0.8,1.3,1.2c2.8-4.6,6.1-8.9,10.1-12.7C170.2,109.8,169.8,109,169.5,108L169.5,108z M157.4,125.6
			c-1.2,2.4-2.3,4.9-3.3,7.4v3.8c1.3-3.5,2.8-6.9,4.5-10.1C158.2,126.3,157.8,125.9,157.4,125.6z"/>
		<path class="logo__0" d="M154.2,108.5c1.8,3.3,3.8,6.5,6.1,9.4c0.5-0.9,1.1-1.7,1.7-2.5c-3-4.1-5.6-8.6-7.7-13.1V108.5L154.2,108.5z
			M163.2,121.5c10.2,11.4,24.3,18.8,41.3,18.8c11.9,0,24.2-3.3,33.7-9.2c-0.6-0.4-1.1-0.9-1.6-1.4c-9.1,5.8-20.6,9.3-32,9.3
			c-16.1,0-29.8-8.2-39.6-19.8C164.3,119.9,163.8,120.7,163.2,121.5L163.2,121.5z M241.8,128.5c-0.6-0.4-1.2-0.9-1.8-1.3
			c1.4-1.1,2.7-2.2,4-3.4c-3.2-4.2-8-14.3-2.1-18c6.6-4.2,15.5,1.6,9.5,12.3c-0.6-0.5-1.2-1-1.8-1.5c0.5-1,0.9-2,1.1-2.9
			c1.5-6.2-4.3-8.1-7.8-5.9c-5,3.1-0.4,11.7,2.1,15.1c0.9-1,1.8-2,2.5-2.9c0.6,0.5,1.1,0.9,1.7,1.4c-0.8,1-1.8,2.1-2.9,3.2
			c3.3,4.1,10,8.3,16.5,10.4c7.4,2.3,15.7,3.4,22.6,1c4.6-1.6,10.8-6.2,12.9-11.2c2,1.5,3.6,7.2-11.1,12.3c-8,2.8-18.3,1.4-24.7-0.7
			c-6-2-12.9-5.5-17.2-10.8C244.2,126.6,243,127.6,241.8,128.5z"/>
		<path class="logo__0" d="M254.8,136.1c-9.7-2.6-18.2-8.8-24.7-16.5c-0.3,0.3-0.6,0.6-0.9,0.9C236.3,128.6,247.9,138.6,254.8,136.1
			L254.8,136.1z M229.2,118.6c-0.3,0.3-0.6,0.6-0.9,0.9c-6.2,6.1-15.8,9.3-24.7,9.3c-8.8,0-17.8-3.5-24.4-9.4c0.3-0.3,0.6-0.7,0.9-1
			c6.4,5.7,15.1,8.8,23.6,8.8c8.6,0,17.3-3.7,23.2-9.6c0.3-0.3,0.6-0.6,0.9-1c2.2-2.4,3.7-5.1,4.6-8c0.8,0.5,1.7,1.1,2.5,1.6
			C233.4,113.4,231.4,116.3,229.2,118.6L229.2,118.6z M236.3,105.8c0.1-0.6,0.2-1.2,0.2-1.7c0.8-11.2-15.7-12.1-15.7-0.4
			c0,4.7,2.3,9.1,5.2,13c0.3-0.3,0.6-0.6,0.9-1c-2.7-3.7-4.7-7.8-4.8-12.1c-0.1-8.5,11.7-8.3,11.2-0.1
			C234.3,104.3,235.3,105,236.3,105.8L236.3,105.8z M179,117.5c3.2-3.9,6.6-9.2,6.8-14.4c0-0.4,0-0.8,0-1.2c-1.1,0.5-2.2,1-3.2,1.6
			l0,0.1c-0.3,4.8-2,8.8-5,12.5c-0.3,0.3-0.6,0.7-0.9,1c-1.8,2.1-3.9,4.2-6,6.2c0.4,0.4,0.8,0.7,1.2,1.1c2.3-2.2,4.6-4.3,6.2-6
			C178.4,118.2,178.7,117.9,179,117.5L179,117.5z M167.1,127.2c-2.2,2.5-4.4,5.2-5,8.5c-0.4,2.1,0.8,4.5,3.2,4.5
			c2.1,0,3.3-1.7,3-3.8c-0.2-1.1-1-2.5-1.9-3.9c-0.3,0.4-0.5,0.8-0.8,1.3c0.6,1.2,0.8,2,0.8,2.8c0,1.3-0.8,1.8-1.6,1.9
			c-1.3,0-1.6-0.8-1.5-1.8c0.1-2.1,3.6-6.7,5.1-8.3C167.9,127.9,167.5,127.6,167.1,127.2L167.1,127.2z M164.1,129.1
			c-0.3,0.4-0.6,0.7-0.8,1.1c-2.6-3.4-6.1-6.6-9.1-8.3v-2.4C157.2,121.4,161.3,125.6,164.1,129.1L164.1,129.1z M183.2,96.8
			c-4.7-3.9-14.1-1.4-13.1,7.5c0.5,4.4,2.6,8.5,5.8,12c0.3-0.3,0.6-0.7,0.8-1c-2.9-3.3-4.8-7.1-5.3-11.1c-0.7-6.1,5.3-8.1,8.8-5.8
			C181.2,97.8,182.2,97.2,183.2,96.8z"/>
	</g>
	<path class="logo__0" d="M123,100.7c-15.6-9.5-25.8-28.6-25.8-46.4c0-30,25.7-54.3,56.9-54.3c31.2,0,56.9,24.3,56.9,54.3
		c0,17.4-10,36.2-25,46.1l-1.7-2.8c14.9-9.8,24.3-26,24.3-43.3c0-28.9-24.4-52.4-54.5-52.4c-30.1,0-54.5,23.5-54.5,52.4
		c0,17.7,9.5,33.9,24.9,43.6C126.1,98.9,125.3,102.1,123,100.7z"/>
	<path class="logo__0" d="M126.7,94c-13.2-8.8-21.5-23.9-21.5-39.3c0-13,5.5-24.8,14.4-33.3c8.9-8.5,21.1-13.8,34.7-13.8
		c13.5,0,25.8,5.3,34.7,13.8c8.9,8.5,14.3,20.3,14.3,33.3c0,15.5-8.3,30.5-21.5,39.3c-0.9-0.3-1.7-0.5-2.6-0.6
		c13.9-8.2,22.5-22.7,22.5-38.7c0-12.6-5.3-24-13.9-32.2c-8.6-8.2-20.4-13.3-33.5-13.3c-13.1,0-24.9,5.1-33.5,13.3
		c-8.6,8.2-13.9,19.6-13.9,32.2c0,16,8.6,30.5,22.5,38.7C128.4,93.5,127.5,93.7,126.7,94z"/>
	</g>
	<g>
		<g>
		</g>
	</g>
	<g>
		<g>
		</g>
	</g>
	<text transform="matrix(0.9949 0 0 1 106.5053 62.0308)" class="logo__1 logo__2">Cookie</text>
</symbol>

</defs>
</svg>
